<?xml version="1.0" encoding="utf-8"?>
<!-- Generator: Adobe Illustrator 16.0.0, SVG Export Plug-In . SVG Version: 6.00 Build 0)  -->
<!DOCTYPE svg PUBLIC "-//W3C//DTD SVG 1.1//EN" "http://www.w3.org/Graphics/SVG/1.1/DTD/svg11.dtd">
<svg version="1.1" xmlns="http://www.w3.org/2000/svg" xmlns:xlink="http://www.w3.org/1999/xlink" x="0px" y="0px"
	 width="696.078px" height="194.174px" viewBox="0 0 696.078 194.174" enable-background="new 0 0 696.078 194.174"
	 xml:space="preserve">
<g id="Steps">
	<rect y="102.475" fill="none" width="99.206" height="45.238"/>
	<text transform="matrix(1 0 0 1 7.6982 111.9644)"><tspan x="0" y="0" font-family="'Raleway-Regular'" font-size="13">Advocate and </tspan><tspan x="-4.641" y="15.6" font-family="'Raleway-Regular'" font-size="13">partner teacher </tspan><tspan x="26.123" y="31.201" font-family="'Raleway-Regular'" font-size="13">meet</tspan></text>
	<rect x="120" y="102.475" fill="none" width="99.206" height="64.843"/>
	<text transform="matrix(1 0 0 1 140.8604 111.9644)"><tspan x="0" y="0" font-family="'Raleway-Regular'" font-size="13">Advocate </tspan><tspan x="1.885" y="15.6" font-family="'Raleway-Regular'" font-size="13">shadows </tspan><tspan x="-17.803" y="31.201" font-family="'Raleway-Regular'" font-size="13">partner teacher </tspan><tspan x="-6.305" y="46.8" font-family="'Raleway-Regular'" font-size="13">for half-day</tspan></text>
	<rect x="233.268" y="102.475" fill="none" width="112" height="91.699"/>
	<text transform="matrix(1 0 0 1 233.7197 111.9644)"><tspan x="0" y="0" font-family="'Raleway-Regular'" font-size="13"> Advocate, partner </tspan><tspan x="19.526" y="15.6" font-family="'Raleway-Regular'" font-size="13">teacher and </tspan><tspan x="9.938" y="31.201" font-family="'Raleway-Regular'" font-size="13">School Shaped </tspan><tspan x="33.221" y="46.8" font-family="'Raleway-Regular'" font-size="13">identify </tspan><tspan x="9.477" y="62.4" font-family="'Raleway-Regular'" font-size="13">challenges and </tspan><tspan x="15.691" y="78" font-family="'Raleway-Regular'" font-size="13">opportunities</tspan></text>
	<rect x="362" y="102.475" fill="none" width="99.205" height="73.699"/>
	<text transform="matrix(1 0 0 1 369.6978 111.9644)"><tspan x="0" y="0" font-family="'Raleway-Regular'" font-size="13">Advocate and </tspan><tspan x="-4.641" y="15.6" font-family="'Raleway-Regular'" font-size="13">partner teacher </tspan><tspan x="-6.564" y="31.201" font-family="'Raleway-Regular'" font-size="13">p</tspan><tspan x="1.716" y="31.201" font-family="'Raleway-Regular'" font-size="13">r</tspan><tspan x="6.279" y="31.201" font-family="'Raleway-Regular'" font-size="13">e</tspan><tspan x="14.17" y="31.201" font-family="'Raleway-Regular'" font-size="13">sent findings </tspan><tspan x="4.121" y="46.8" font-family="'Raleway-Regular'" font-size="13">to education </tspan><tspan x="18.252" y="62.4" font-family="'Raleway-Regular'" font-size="13">meetup</tspan></text>
	<rect x="480" y="102.475" fill="none" width="113.269" height="90.699"/>
	<text transform="matrix(1 0 0 1 488.0601 111.9648)"><tspan x="0" y="0" font-family="'Raleway-Regular'" font-size="13">Advocate works </tspan><tspan x="-7.273" y="15.6" font-family="'Raleway-Regular'" font-size="13">with the education </tspan><tspan x="6.591" y="31.201" font-family="'Raleway-Regular'" font-size="13">co</tspan><tspan x="21.462" y="31.201" font-family="'Raleway-Regular'" font-size="13">m</tspan><tspan x="33.669" y="31.201" font-family="'Raleway-Regular'" font-size="13">munity to </tspan><tspan x="0.514" y="46.801" font-family="'Raleway-Regular'" font-size="13">provide </tspan><tspan x="49.627" y="46.801" font-family="'Raleway-Regular'" font-size="13">s</tspan><tspan x="56.218" y="46.801" font-family="'Raleway-Regular'" font-size="13">upport</tspan><tspan x="96.634" y="46.801" font-family="'Raleway-Regular'" font-size="13" letter-spacing="-1"> </tspan><tspan x="5.284" y="62.4" font-family="'Raleway-Regular'" font-size="13">for the partner </tspan><tspan x="25.583" y="78" font-family="'Raleway-Regular'" font-size="13">teacher</tspan></text>
</g>
<g id="Arrow">
	
		<polygon fill="#F2F2F2" stroke="#666666" stroke-width="2" stroke-linecap="round" stroke-linejoin="round" stroke-miterlimit="10" points="
		695.078,52.237 602.268,1 602.268,26.174 2.268,26.174 2.268,82.174 602.268,82.174 602.268,103.475 	"/>
</g>
<g id="img_1">
	<path fill="#82B974" d="M29.102,62.507c-2.481,0-4.5-2.019-4.5-4.5s2.019-4.5,4.5-4.5s4.5,2.019,4.5,4.5
		S31.583,62.507,29.102,62.507z"/>
	<circle fill="#82B974" cx="29.102" cy="58.007" r="3.5"/>
	
		<line fill="#DD637A" stroke="#82B974" stroke-width="2" stroke-linecap="round" stroke-miterlimit="10" x1="29.268" y1="61.174" x2="29.268" y2="71.174"/>
	
		<line fill="none" stroke="#82B974" stroke-width="2" stroke-linecap="round" stroke-miterlimit="10" x1="29.268" y1="71.174" x2="35.268" y2="71.174"/>
	
		<line fill="#DD637A" stroke="#82B974" stroke-width="2" stroke-linecap="round" stroke-miterlimit="10" x1="35.268" y1="72.174" x2="35.268" y2="82.174"/>
	
		<line fill="none" stroke="#808080" stroke-width="2" stroke-linecap="round" stroke-miterlimit="10" x1="27.268" y1="64.174" x2="27.268" y2="82.174"/>
	
		<line fill="none" stroke="#808080" stroke-width="2" stroke-linecap="round" stroke-miterlimit="10" x1="27.268" y1="73.174" x2="32.268" y2="73.174"/>
	
		<line fill="none" stroke="#808080" stroke-width="2" stroke-linecap="round" stroke-miterlimit="10" x1="33.268" y1="73.174" x2="33.268" y2="82.174"/>
	
		<line fill="#DD637A" stroke="#82B974" stroke-width="2" stroke-linecap="round" stroke-miterlimit="10" x1="29.268" y1="66.174" x2="36.268" y2="66.174"/>
	
		<line fill="#DD637A" stroke="#82B974" stroke-width="2" stroke-linecap="round" stroke-miterlimit="10" x1="36.268" y1="66.174" x2="39.935" y2="64.174"/>
	
		<line fill="none" stroke="#808080" stroke-width="2" stroke-linecap="round" stroke-miterlimit="10" x1="40.268" y1="81.174" x2="40.268" y2="69.174"/>
	
		<line fill="none" stroke="#808080" stroke-width="3" stroke-linecap="round" stroke-miterlimit="10" x1="40.268" y1="69.674" x2="52.268" y2="69.674"/>
	
		<line fill="none" stroke="#808080" stroke-width="2" stroke-linecap="round" stroke-miterlimit="10" x1="52.268" y1="69.174" x2="52.268" y2="81.174"/>
	<path fill="#DD637A" d="M62.435,62.507c-2.481,0-4.5-2.019-4.5-4.5s2.019-4.5,4.5-4.5s4.5,2.019,4.5,4.5
		S64.916,62.507,62.435,62.507z"/>
	<circle fill="#DD637A" cx="62.435" cy="58.007" r="3.5"/>
	
		<line fill="#DD637A" stroke="#DD637A" stroke-width="2" stroke-linecap="round" stroke-miterlimit="10" x1="62.268" y1="61.174" x2="62.268" y2="71.174"/>
	
		<line fill="none" stroke="#DD637A" stroke-width="2" stroke-linecap="round" stroke-miterlimit="10" x1="62.268" y1="71.174" x2="56.268" y2="71.174"/>
	
		<line fill="#DD637A" stroke="#DD637A" stroke-width="2" stroke-linecap="round" stroke-miterlimit="10" x1="56.268" y1="72.174" x2="56.268" y2="82.174"/>
	
		<line fill="none" stroke="#808080" stroke-width="2" stroke-linecap="round" stroke-miterlimit="10" x1="64.268" y1="64.174" x2="64.268" y2="82.174"/>
	
		<line fill="none" stroke="#808080" stroke-width="2" stroke-linecap="round" stroke-miterlimit="10" x1="64.268" y1="73.174" x2="59.268" y2="73.174"/>
	
		<line fill="none" stroke="#808080" stroke-width="2" stroke-linecap="round" stroke-miterlimit="10" x1="58.268" y1="73.174" x2="58.268" y2="82.174"/>
	
		<line fill="none" stroke="#DD637A" stroke-width="2" stroke-linecap="round" stroke-miterlimit="10" x1="61.768" y1="66.174" x2="56.268" y2="71.174"/>
</g>
<g id="img_2">
	<path fill="#82B974" d="M128.446,66.385c-2.119,0-3.843-1.724-3.843-3.843s1.724-3.843,3.843-3.843s3.843,1.724,3.843,3.843
		S130.565,66.385,128.446,66.385z"/>
	<circle fill="#82B974" cx="128.446" cy="62.542" r="2.843"/>
	
		<line fill="#DD637A" stroke="#82B974" stroke-width="2" stroke-linecap="round" stroke-miterlimit="10" x1="128.268" y1="65.174" x2="128.268" y2="73.174"/>
	
		<line fill="none" stroke="#82B974" stroke-width="2" stroke-linecap="round" stroke-miterlimit="10" x1="128.268" y1="73.174" x2="133.268" y2="73.174"/>
	
		<line fill="#DD637A" stroke="#82B974" stroke-width="2" stroke-linecap="round" stroke-miterlimit="10" x1="134.268" y1="74.174" x2="134.268" y2="81.174"/>
	
		<line fill="none" stroke="#808080" stroke-width="2" stroke-linecap="round" stroke-miterlimit="10" x1="126.268" y1="67.174" x2="126.268" y2="82.174"/>
	
		<line fill="none" stroke="#808080" stroke-width="2" stroke-linecap="round" stroke-miterlimit="10" x1="127.268" y1="75.174" x2="131.268" y2="75.174"/>
	
		<line fill="none" stroke="#808080" stroke-width="2" stroke-linecap="round" stroke-miterlimit="10" x1="132.268" y1="75.174" x2="132.268" y2="82.174"/>
	
		<line fill="none" stroke="#62BECE" stroke-width="2" stroke-linecap="round" stroke-miterlimit="10" x1="156.268" y1="69.174" x2="156.268" y2="71.174"/>
	
		<line fill="none" stroke="#DD637A" stroke-width="2" stroke-linecap="round" stroke-miterlimit="10" x1="211.518" y1="64.174" x2="214.935" y2="70.674"/>
	
		<line fill="none" stroke="#DD637A" stroke-width="2" stroke-linecap="round" stroke-miterlimit="10" x1="211.518" y1="64.174" x2="202.518" y2="62.674"/>
	<path fill="#DD637A" d="M211.435,60.507c-2.481,0-4.5-2.019-4.5-4.5s2.019-4.5,4.5-4.5s4.5,2.019,4.5,4.5
		S213.916,60.507,211.435,60.507z"/>
	<circle fill="#DD637A" cx="211.435" cy="56.007" r="3.5"/>
	
		<line fill="none" stroke="#DD637A" stroke-width="2" stroke-linecap="round" stroke-miterlimit="10" x1="211.268" y1="60.174" x2="211.268" y2="72.174"/>
	
		<line fill="none" stroke="#DD637A" stroke-width="2" stroke-linecap="round" stroke-miterlimit="10" x1="211.268" y1="72.174" x2="206.768" y2="80.674"/>
	
		<line fill="none" stroke="#DD637A" stroke-width="2" stroke-linecap="round" stroke-miterlimit="10" x1="211.518" y1="72.174" x2="215.518" y2="80.674"/>
	<rect x="155.268" y="43.174" fill="#FFFFFF" stroke="#808080" stroke-width="2" stroke-miterlimit="10" width="36" height="17"/>
	
		<line fill="none" stroke="#808080" stroke-width="2" stroke-linecap="round" stroke-miterlimit="10" x1="153.268" y1="77.174" x2="153.268" y2="81.174"/>
	
		<line fill="none" stroke="#808080" stroke-width="2" stroke-linecap="round" stroke-miterlimit="10" x1="159.268" y1="77.174" x2="159.268" y2="81.174"/>
	<rect x="159.268" y="46.174" fill="none" width="29" height="18"/>
	<text transform="matrix(1 0 0 1 168.9312 48.3218)"><tspan x="0" y="0" font-family="'ArialMT'" font-size="3" text-decoration=" underline">Lesson</tspan><tspan x="-0.664" y="3.6" font-family="'ArialMT'" font-size="3">Symetry</tspan></text>
	<path fill="#62BECE" d="M156.434,69.674c-1.93,0-3.5-1.57-3.5-3.5s1.57-3.5,3.5-3.5s3.5,1.57,3.5,3.5
		S158.364,69.674,156.434,69.674z"/>
	<circle fill="#62BECE" cx="156.434" cy="66.174" r="2.5"/>
	
		<line fill="none" stroke="#808080" stroke-width="2" stroke-linecap="round" stroke-miterlimit="10" x1="153.268" y1="77.174" x2="159.268" y2="77.174"/>
	
		<rect x="153.268" y="71.174" fill="none" stroke="#808080" stroke-width="2" stroke-linecap="round" stroke-linejoin="round" stroke-miterlimit="10" width="6" height="6"/>
	
		<line fill="none" stroke="#62BECE" stroke-width="2" stroke-linecap="round" stroke-miterlimit="10" x1="167.268" y1="69.174" x2="167.268" y2="71.174"/>
	
		<line fill="none" stroke="#808080" stroke-width="2" stroke-linecap="round" stroke-miterlimit="10" x1="164.268" y1="77.174" x2="164.268" y2="81.174"/>
	
		<line fill="none" stroke="#808080" stroke-width="2" stroke-linecap="round" stroke-miterlimit="10" x1="170.268" y1="77.174" x2="170.268" y2="81.174"/>
	<path fill="#62BECE" d="M167.434,69.674c-1.93,0-3.5-1.57-3.5-3.5s1.57-3.5,3.5-3.5s3.5,1.57,3.5,3.5
		S169.364,69.674,167.434,69.674z"/>
	<circle fill="#62BECE" cx="167.434" cy="66.174" r="2.5"/>
	
		<line fill="none" stroke="#808080" stroke-width="2" stroke-linecap="round" stroke-miterlimit="10" x1="164.268" y1="77.174" x2="170.268" y2="77.174"/>
	
		<rect x="164.268" y="71.174" fill="none" stroke="#808080" stroke-width="2" stroke-linecap="round" stroke-linejoin="round" stroke-miterlimit="10" width="6" height="6"/>
	
		<line fill="none" stroke="#62BECE" stroke-width="2" stroke-linecap="round" stroke-miterlimit="10" x1="177.268" y1="69.174" x2="177.268" y2="71.174"/>
	
		<line fill="none" stroke="#808080" stroke-width="2" stroke-linecap="round" stroke-miterlimit="10" x1="174.268" y1="77.174" x2="174.268" y2="81.174"/>
	
		<line fill="none" stroke="#808080" stroke-width="2" stroke-linecap="round" stroke-miterlimit="10" x1="180.268" y1="77.174" x2="180.268" y2="81.174"/>
	<path fill="#62BECE" d="M177.434,69.674c-1.93,0-3.5-1.57-3.5-3.5s1.57-3.5,3.5-3.5s3.5,1.57,3.5,3.5
		S179.364,69.674,177.434,69.674z"/>
	<circle fill="#62BECE" cx="177.434" cy="66.174" r="2.5"/>
	
		<line fill="none" stroke="#808080" stroke-width="2" stroke-linecap="round" stroke-miterlimit="10" x1="174.268" y1="77.174" x2="180.268" y2="77.174"/>
	
		<rect x="174.268" y="71.174" fill="none" stroke="#808080" stroke-width="2" stroke-linecap="round" stroke-linejoin="round" stroke-miterlimit="10" width="6" height="6"/>
	
		<line fill="none" stroke="#62BECE" stroke-width="2" stroke-linecap="round" stroke-miterlimit="10" x1="187.268" y1="69.174" x2="187.268" y2="71.174"/>
	
		<line fill="none" stroke="#808080" stroke-width="2" stroke-linecap="round" stroke-miterlimit="10" x1="184.268" y1="77.174" x2="184.268" y2="81.174"/>
	
		<line fill="none" stroke="#808080" stroke-width="2" stroke-linecap="round" stroke-miterlimit="10" x1="190.268" y1="77.174" x2="190.268" y2="81.174"/>
	<path fill="#62BECE" d="M187.434,69.674c-1.93,0-3.5-1.57-3.5-3.5s1.57-3.5,3.5-3.5s3.5,1.57,3.5,3.5
		S189.364,69.674,187.434,69.674z"/>
	<circle fill="#62BECE" cx="187.434" cy="66.174" r="2.5"/>
	
		<line fill="none" stroke="#808080" stroke-width="2" stroke-linecap="round" stroke-miterlimit="10" x1="184.268" y1="77.174" x2="190.268" y2="77.174"/>
	
		<rect x="184.268" y="71.174" fill="none" stroke="#808080" stroke-width="2" stroke-linecap="round" stroke-linejoin="round" stroke-miterlimit="10" width="6" height="6"/>
	
		<line fill="none" stroke="#82B974" stroke-width="2" stroke-linecap="round" stroke-miterlimit="10" x1="129.268" y1="68.674" x2="134.712" y2="72.174"/>
</g>
<g id="img_3">
	
		<line fill="none" stroke="#808080" stroke-width="2" stroke-linecap="round" stroke-miterlimit="10" x1="302.268" y1="81.174" x2="302.268" y2="69.174"/>
	
		<line fill="none" stroke="#DD637A" stroke-width="2" stroke-linecap="round" stroke-miterlimit="10" x1="306.518" y1="64.174" x2="309.935" y2="70.674"/>
	<path fill="#DD637A" d="M306.435,60.507c-2.481,0-4.5-2.019-4.5-4.5s2.019-4.5,4.5-4.5s4.5,2.019,4.5,4.5
		S308.916,60.507,306.435,60.507z"/>
	<circle fill="#DD637A" cx="306.435" cy="56.007" r="3.5"/>
	
		<line fill="none" stroke="#DD637A" stroke-width="2" stroke-linecap="round" stroke-miterlimit="10" x1="306.268" y1="60.174" x2="306.268" y2="72.174"/>
	
		<line fill="none" stroke="#DD637A" stroke-width="2" stroke-linecap="round" stroke-miterlimit="10" x1="306.518" y1="72.174" x2="310.518" y2="80.674"/>
	
		<line fill="none" stroke="#DD637A" stroke-width="2" stroke-linecap="round" stroke-miterlimit="10" x1="306.268" y1="72.174" x2="304.768" y2="80.674"/>
	
		<line fill="none" stroke="#808080" stroke-width="2" stroke-linecap="round" stroke-miterlimit="10" x1="280.268" y1="81.174" x2="280.268" y2="69.174"/>
	
		<line fill="none" stroke="#808080" stroke-width="2" stroke-linecap="round" stroke-miterlimit="10" x1="280.268" y1="69.174" x2="302.268" y2="69.174"/>
	
		<line fill="none" stroke="#DD637A" stroke-width="2" stroke-linecap="round" stroke-miterlimit="10" x1="306.518" y1="64.174" x2="299.305" y2="67.993"/>
	<path fill="#82B974" d="M275.389,60.507c-2.481,0-4.5-2.019-4.5-4.5s2.019-4.5,4.5-4.5s4.5,2.019,4.5,4.5
		S277.87,60.507,275.389,60.507z"/>
	<circle fill="#82B974" cx="275.389" cy="56.007" r="3.5"/>
	
		<line fill="none" stroke="#82B974" stroke-width="2" stroke-linecap="round" stroke-miterlimit="10" x1="275.268" y1="60.174" x2="275.268" y2="72.174"/>
	
		<line fill="none" stroke="#82B974" stroke-width="2" stroke-linecap="round" stroke-miterlimit="10" x1="275.305" y1="72.174" x2="271.305" y2="80.674"/>
	
		<line fill="none" stroke="#82B974" stroke-width="2" stroke-linecap="round" stroke-miterlimit="10" x1="275.555" y1="72.174" x2="277.055" y2="80.674"/>
	
		<line fill="none" stroke="#82B974" stroke-width="2" stroke-linecap="round" stroke-miterlimit="10" x1="275.886" y1="64.827" x2="281.442" y2="60.793"/>
	
		<line fill="none" stroke="#82B974" stroke-width="2" stroke-linecap="round" stroke-miterlimit="10" x1="275.886" y1="64.827" x2="280.268" y2="69.174"/>
	<rect x="284.768" y="55.674" fill="none" stroke="#808080" stroke-linecap="round" stroke-miterlimit="10" width="13" height="9"/>
	<rect x="287.018" y="57.174" fill="#FFFF00" width="2" height="2"/>
	<rect x="291.018" y="57.174" fill="#FFFF00" width="2" height="2"/>
	<rect x="295.018" y="57.174" fill="#FFFF00" width="2" height="2"/>
</g>
<g id="img4">
	
		<line fill="none" stroke="#808080" stroke-width="2" stroke-linecap="round" stroke-miterlimit="10" x1="394.268" y1="82.174" x2="394.268" y2="67.174"/>
	
		<line fill="none" stroke="#808080" stroke-width="2" stroke-linecap="round" stroke-miterlimit="10" x1="399.268" y1="63.174" x2="399.268" y2="81.174"/>
	
		<line fill="none" stroke="#808080" stroke-width="2" stroke-linecap="round" stroke-miterlimit="10" x1="394.268" y1="67.174" x2="399.268" y2="63.174"/>
	<path fill="#82B974" d="M388.389,61.507c-2.481,0-4.5-2.019-4.5-4.5s2.019-4.5,4.5-4.5s4.5,2.019,4.5,4.5
		S390.871,61.507,388.389,61.507z"/>
	<circle fill="#82B974" cx="388.389" cy="57.007" r="3.5"/>
	
		<line fill="none" stroke="#82B974" stroke-width="2" stroke-linecap="round" stroke-miterlimit="10" x1="388.268" y1="61.174" x2="388.268" y2="73.174"/>
	
		<line fill="none" stroke="#82B974" stroke-width="2" stroke-linecap="round" stroke-miterlimit="10" x1="388.305" y1="73.174" x2="384.305" y2="81.674"/>
	
		<line fill="none" stroke="#82B974" stroke-width="2" stroke-linecap="round" stroke-miterlimit="10" x1="388.555" y1="73.174" x2="390.055" y2="81.674"/>
	
		<line fill="none" stroke="#82B974" stroke-width="2" stroke-linecap="round" stroke-miterlimit="10" x1="388.268" y1="65.174" x2="394.268" y2="67.174"/>
	
		<line fill="none" stroke="#DD637A" stroke-width="2" stroke-linecap="round" stroke-miterlimit="10" x1="369.518" y1="64.174" x2="372.934" y2="70.674"/>
	<path fill="#DD637A" d="M369.434,60.507c-2.481,0-4.5-2.019-4.5-4.5s2.019-4.5,4.5-4.5s4.5,2.019,4.5,4.5
		S371.916,60.507,369.434,60.507z"/>
	<circle fill="#DD637A" cx="369.434" cy="56.007" r="3.5"/>
	
		<line fill="none" stroke="#DD637A" stroke-width="2" stroke-linecap="round" stroke-miterlimit="10" x1="369.268" y1="60.174" x2="369.268" y2="72.174"/>
	
		<line fill="none" stroke="#DD637A" stroke-width="2" stroke-linecap="round" stroke-miterlimit="10" x1="369.518" y1="72.174" x2="373.518" y2="80.674"/>
	
		<line fill="none" stroke="#DD637A" stroke-width="2" stroke-linecap="round" stroke-miterlimit="10" x1="369.268" y1="72.174" x2="367.768" y2="80.674"/>
	
		<line fill="none" stroke="#DD637A" stroke-width="2" stroke-linecap="round" stroke-miterlimit="10" x1="367.768" y1="64.674" x2="362.935" y2="62.674"/>
	
		<line fill="none" stroke="#808080" stroke-width="2" stroke-linecap="round" stroke-miterlimit="10" x1="421.268" y1="81.174" x2="421.268" y2="74.174"/>
	
		<line fill="none" stroke="#808080" stroke-width="2" stroke-linecap="round" stroke-miterlimit="10" x1="421.268" y1="74.174" x2="426.268" y2="74.174"/>
	
		<line fill="none" stroke="#808080" stroke-width="2" stroke-linecap="round" stroke-miterlimit="10" x1="426.268" y1="74.174" x2="426.268" y2="81.174"/>
	
		<line fill="none" stroke="#808080" stroke-width="2" stroke-linecap="round" stroke-miterlimit="10" x1="426.268" y1="74.174" x2="426.268" y2="66.174"/>
	
		<line fill="none" stroke="#EDD376" stroke-width="2" stroke-linecap="round" stroke-miterlimit="10" x1="424.268" y1="64.174" x2="424.268" y2="72.174"/>
	
		<line fill="none" stroke="#EDD376" stroke-width="2" stroke-linecap="round" stroke-miterlimit="10" x1="424.268" y1="72.174" x2="420.268" y2="72.174"/>
	
		<line fill="none" stroke="#EDD376" stroke-width="2" stroke-linecap="round" stroke-miterlimit="10" x1="419.268" y1="72.174" x2="419.268" y2="81.174"/>
	<path fill="#EDD376" d="M423.859,64.174c-2.062,0-3.739-1.677-3.739-3.739s1.678-3.739,3.739-3.739s3.739,1.677,3.739,3.739
		S425.92,64.174,423.859,64.174z"/>
	<circle fill="#EDD376" cx="423.859" cy="60.435" r="2.739"/>
	
		<line fill="none" stroke="#EDD376" stroke-width="2" stroke-linecap="round" stroke-miterlimit="10" x1="423.768" y1="67.424" x2="419.268" y2="72.174"/>
	
		<line fill="none" stroke="#808080" stroke-width="2" stroke-linecap="round" stroke-miterlimit="10" x1="434.268" y1="82.174" x2="434.268" y2="75.174"/>
	
		<line fill="none" stroke="#808080" stroke-width="2" stroke-linecap="round" stroke-miterlimit="10" x1="434.268" y1="75.174" x2="439.268" y2="75.174"/>
	
		<line fill="none" stroke="#808080" stroke-width="2" stroke-linecap="round" stroke-miterlimit="10" x1="439.268" y1="75.174" x2="439.268" y2="82.174"/>
	
		<line fill="none" stroke="#808080" stroke-width="2" stroke-linecap="round" stroke-miterlimit="10" x1="440.268" y1="75.174" x2="440.268" y2="67.174"/>
	
		<line fill="none" stroke="#8CC63F" stroke-width="2" stroke-linecap="round" stroke-miterlimit="10" x1="438.268" y1="65.174" x2="438.268" y2="73.174"/>
	
		<line fill="none" stroke="#8CC63F" stroke-width="2" stroke-linecap="round" stroke-miterlimit="10" x1="438.268" y1="73.174" x2="434.268" y2="73.174"/>
	
		<line fill="none" stroke="#8CC63F" stroke-width="2" stroke-linecap="round" stroke-miterlimit="10" x1="433.268" y1="73.174" x2="433.268" y2="82.174"/>
	<path fill="#8CC63F" d="M437.873,65.174c-2.054,0-3.725-1.671-3.725-3.725s1.671-3.725,3.725-3.725
		c2.055,0,3.726,1.671,3.726,3.725S439.927,65.174,437.873,65.174z"/>
	<circle fill="#8CC63F" cx="437.873" cy="61.449" r="2.725"/>
	
		<line fill="none" stroke="#8CC63F" stroke-width="2" stroke-linecap="round" stroke-miterlimit="10" x1="437.768" y1="68.424" x2="433.268" y2="73.174"/>
	
		<line fill="none" stroke="#808080" stroke-width="2" stroke-linecap="round" stroke-miterlimit="10" x1="449.268" y1="82.174" x2="449.268" y2="75.174"/>
	
		<line fill="none" stroke="#808080" stroke-width="2" stroke-linecap="round" stroke-miterlimit="10" x1="449.268" y1="75.174" x2="454.268" y2="75.174"/>
	
		<line fill="none" stroke="#808080" stroke-width="2" stroke-linecap="round" stroke-miterlimit="10" x1="454.268" y1="75.174" x2="454.268" y2="82.174"/>
	
		<line fill="none" stroke="#808080" stroke-width="2" stroke-linecap="round" stroke-miterlimit="10" x1="455.268" y1="75.174" x2="455.268" y2="67.174"/>
	
		<line fill="none" stroke="#00A99D" stroke-width="2" stroke-linecap="round" stroke-miterlimit="10" x1="453.268" y1="65.174" x2="453.268" y2="73.174"/>
	
		<line fill="none" stroke="#00A99D" stroke-width="2" stroke-linecap="round" stroke-miterlimit="10" x1="453.268" y1="73.174" x2="449.268" y2="73.174"/>
	
		<line fill="none" stroke="#00A99D" stroke-width="2" stroke-linecap="round" stroke-miterlimit="10" x1="448.268" y1="73.174" x2="448.268" y2="82.174"/>
	<path fill="#00A99D" d="M452.994,65.174c-1.987,0-3.604-1.617-3.604-3.604s1.617-3.604,3.604-3.604s3.604,1.617,3.604,3.604
		S454.981,65.174,452.994,65.174z"/>
	<circle fill="#00A99D" cx="452.994" cy="61.569" r="2.604"/>
	
		<line fill="none" stroke="#00A99D" stroke-width="2" stroke-linecap="round" stroke-miterlimit="10" x1="452.768" y1="68.424" x2="448.268" y2="73.174"/>
</g>
<g id="img_5">
	
		<line fill="none" stroke="#808080" stroke-width="2" stroke-linecap="round" stroke-miterlimit="10" x1="512.268" y1="81.174" x2="512.268" y2="68.174"/>
	
		<line fill="none" stroke="#808080" stroke-width="2" stroke-linecap="round" stroke-miterlimit="10" x1="570.268" y1="68.174" x2="570.268" y2="82.174"/>
	<path fill="#82B974" d="M506.389,60.507c-2.481,0-4.5-2.019-4.5-4.5s2.019-4.5,4.5-4.5s4.5,2.019,4.5,4.5
		S508.871,60.507,506.389,60.507z"/>
	<circle fill="#82B974" cx="506.389" cy="56.007" r="3.5"/>
	<circle fill="#82B974" cx="506.389" cy="56.007" r="2.5"/>
	
		<line fill="none" stroke="#82B974" stroke-width="2" stroke-linecap="round" stroke-miterlimit="10" x1="506.268" y1="60.174" x2="506.268" y2="72.174"/>
	
		<line fill="none" stroke="#82B974" stroke-width="2" stroke-linecap="round" stroke-miterlimit="10" x1="506.305" y1="72.174" x2="502.305" y2="80.674"/>
	
		<line fill="none" stroke="#82B974" stroke-width="2" stroke-linecap="round" stroke-miterlimit="10" x1="506.555" y1="72.174" x2="508.055" y2="80.674"/>
	
		<line fill="none" stroke="#82B974" stroke-width="2" stroke-linecap="round" stroke-miterlimit="10" x1="506.268" y1="64.174" x2="512.268" y2="66.174"/>
	<path fill="#EDD376" d="M524.102,64.965c-2.206,0-4-1.794-4-4s1.794-4,4-4s4,1.794,4,4S526.308,64.965,524.102,64.965z"/>
	<circle fill="#EDD376" cx="524.102" cy="60.965" r="3"/>
	
		<rect x="520.768" y="63.674" fill="#FFFFFF" stroke="#B3B3B3" stroke-linecap="round" stroke-miterlimit="10" width="8" height="4"/>
	<path fill="#00A99D" d="M539.102,64.965c-2.206,0-4-1.794-4-4s1.794-4,4-4s4,1.794,4,4S541.308,64.965,539.102,64.965z"/>
	<circle fill="#00A99D" cx="539.102" cy="60.965" r="3"/>
	
		<line fill="none" stroke="#00A99D" stroke-width="2" stroke-linecap="round" stroke-miterlimit="10" x1="539.268" y1="64.174" x2="539.268" y2="67.174"/>
	
		<line fill="none" stroke="#999999" stroke-width="2" stroke-linecap="round" stroke-miterlimit="10" x1="520.268" y1="75.174" x2="529.268" y2="75.174"/>
	
		<line fill="none" stroke="#999999" stroke-width="2" stroke-linecap="round" stroke-miterlimit="10" x1="529.268" y1="75.174" x2="529.268" y2="81.174"/>
	
		<line fill="none" stroke="#999999" stroke-width="2" stroke-linecap="round" stroke-miterlimit="10" x1="520.268" y1="75.174" x2="520.268" y2="81.174"/>
	
		<line fill="none" stroke="#EDD376" stroke-width="2" stroke-linecap="round" stroke-miterlimit="10" x1="524.268" y1="69.174" x2="524.268" y2="73.174"/>
	
		<line fill="none" stroke="#EDD376" stroke-width="2" stroke-linecap="round" stroke-miterlimit="10" x1="521.268" y1="73.174" x2="528.268" y2="73.174"/>
	
		<line fill="none" stroke="#EDD376" stroke-width="2" stroke-linecap="round" stroke-miterlimit="10" x1="521.268" y1="73.174" x2="521.268" y2="81.174"/>
	
		<line fill="none" stroke="#EDD376" stroke-width="2" stroke-linecap="round" stroke-miterlimit="10" x1="528.268" y1="73.174" x2="528.268" y2="81.174"/>
	
		<line fill="none" stroke="#999999" stroke-width="2" stroke-linecap="round" stroke-miterlimit="10" x1="544.268" y1="75.174" x2="544.268" y2="81.174"/>
	
		<line fill="none" stroke="#999999" stroke-width="2" stroke-linecap="round" stroke-miterlimit="10" x1="535.268" y1="75.174" x2="535.268" y2="81.174"/>
	
		<line fill="none" stroke="#999999" stroke-width="2" stroke-linecap="round" stroke-miterlimit="10" x1="535.268" y1="75.174" x2="544.268" y2="75.174"/>
	
		<line fill="none" stroke="#00A99D" stroke-width="2" stroke-linecap="round" stroke-miterlimit="10" x1="539.268" y1="69.174" x2="539.268" y2="73.174"/>
	
		<line fill="none" stroke="#00A99D" stroke-width="2" stroke-linecap="round" stroke-miterlimit="10" x1="536.268" y1="73.174" x2="543.268" y2="73.174"/>
	
		<line fill="none" stroke="#00A99D" stroke-width="2" stroke-linecap="round" stroke-miterlimit="10" x1="536.268" y1="73.174" x2="536.268" y2="81.174"/>
	
		<line fill="none" stroke="#00A99D" stroke-width="2" stroke-linecap="round" stroke-miterlimit="10" x1="543.268" y1="73.174" x2="543.268" y2="81.174"/>
	
		<line fill="none" stroke="#00A99D" stroke-width="2" stroke-linecap="round" stroke-miterlimit="10" x1="539.102" y1="68.424" x2="534.768" y2="64.174"/>
	
		<line fill="none" stroke="#00A99D" stroke-width="2" stroke-linecap="round" stroke-miterlimit="10" x1="539.268" y1="67.174" x2="543.268" y2="66.299"/>
	
		<line fill="none" stroke="#999999" stroke-width="2" stroke-linecap="round" stroke-miterlimit="10" x1="560.268" y1="75.174" x2="560.268" y2="81.174"/>
	
		<line fill="none" stroke="#999999" stroke-width="2" stroke-linecap="round" stroke-miterlimit="10" x1="551.268" y1="75.174" x2="551.268" y2="81.174"/>
	
		<line fill="none" stroke="#999999" stroke-width="2" stroke-linecap="round" stroke-miterlimit="10" x1="551.268" y1="75.174" x2="560.268" y2="75.174"/>
	
		<line fill="none" stroke="#DD637A" stroke-width="2" stroke-linecap="round" stroke-miterlimit="10" x1="555.268" y1="69.174" x2="555.268" y2="73.174"/>
	
		<line fill="none" stroke="#DD637A" stroke-width="2" stroke-linecap="round" stroke-miterlimit="10" x1="552.268" y1="73.174" x2="559.268" y2="73.174"/>
	
		<line fill="none" stroke="#DD637A" stroke-width="2" stroke-linecap="round" stroke-miterlimit="10" x1="552.268" y1="73.174" x2="552.268" y2="81.174"/>
	
		<line fill="none" stroke="#DD637A" stroke-width="2" stroke-linecap="round" stroke-miterlimit="10" x1="559.268" y1="73.174" x2="559.268" y2="81.174"/>
	<path fill="#DD637A" d="M555.102,64.965c-2.206,0-4-1.794-4-4s1.794-4,4-4s4,1.794,4,4S557.308,64.965,555.102,64.965z"/>
	<circle fill="#DD637A" cx="555.102" cy="60.965" r="3"/>
	
		<line fill="none" stroke="#DD637A" stroke-width="2" stroke-linecap="round" stroke-miterlimit="10" x1="555.268" y1="64.174" x2="555.268" y2="67.174"/>
	
		<line fill="none" stroke="#DD637A" stroke-width="2" stroke-linecap="round" stroke-miterlimit="10" x1="555.268" y1="67.174" x2="559.268" y2="66.299"/>
	
		<line fill="none" stroke="#808080" stroke-width="2" stroke-linecap="round" stroke-miterlimit="10" x1="512.268" y1="68.174" x2="570.268" y2="68.174"/>
	
		<rect x="563.268" y="65.174" fill="none" stroke="#4D4D4D" stroke-width="2" stroke-linecap="round" stroke-miterlimit="10" width="6" height="2"/>
	<circle fill="#DD637A" stroke="#DD637A" stroke-miterlimit="10" cx="553.768" cy="66.674" r="1.5"/>
</g>
</svg>
