<?xml version="1.0" encoding="utf-8"?>
<!-- Generator: Adobe Illustrator 16.0.0, SVG Export Plug-In . SVG Version: 6.00 Build 0)  -->
<!DOCTYPE svg PUBLIC "-//W3C//DTD SVG 1.1//EN" "http://www.w3.org/Graphics/SVG/1.1/DTD/svg11.dtd">
<svg version="1.1"
	 id="Layer_1" xmlns:dc="http://purl.org/dc/elements/1.1/" xmlns:cc="http://creativecommons.org/ns#" xmlns:rdf="http://www.w3.org/1999/02/22-rdf-syntax-ns#" xmlns:svg="http://www.w3.org/2000/svg" xmlns:sodipodi="http://sodipodi.sourceforge.net/DTD/sodipodi-0.dtd" xmlns:inkscape="http://www.inkscape.org/namespaces/inkscape"
	 xmlns="http://www.w3.org/2000/svg" xmlns:xlink="http://www.w3.org/1999/xlink" x="0px" y="0px" width="572.11px"
	 height="515.72px" viewBox="20.6 137.02 572.11 515.72" enable-background="new 20.6 137.02 572.11 515.72" xml:space="preserve">
<path fill="none" stroke="#B777B3" stroke-width="20" stroke-miterlimit="10" d="M72.193,147.02
	c22.938,0,41.593,20.821,41.593,46.847c0,25.72-18.655,46.847-41.593,46.847c-22.937,0-41.593-20.821-41.593-46.847
	C30.6,168.147,49.256,147.02,72.193,147.02z"/>
<path fill="none" stroke="#B777B3" stroke-width="20" stroke-miterlimit="10" d="M45.28,476.479v145.439
	c0,11.329,9.481,20.821,20.796,20.821h12.539c11.316,0,20.796-9.492,20.796-20.821V476.479h14.374V331.04l25.69,25.72
	c4.893,4.899,11.927,6.736,18.35,5.818l0,0h0.306h0.306h0.306h0.306h0.306c1.835-0.306,3.67-1.225,5.505-2.144l71.87-41.642
	c9.787-5.817,13.151-18.371,7.646-28.476l0,0c-5.811-9.798-18.35-13.166-28.442-7.655l-58.108,33.681l-51.685-50.828
	c-9.175-8.879-19.879-17.146-33.642-17.146c-22.937,0-41.593,18.677-41.593,41.642l0.5,191.99l13.874,2.5V476.479z"/>
<path fill="none" stroke="#B777B3" stroke-width="20" stroke-miterlimit="10" d="M362.12,356.147l74.622-19.902l36.088-36.13
	l-0.306-2.143c-3.364-22.658,12.539-43.785,35.171-47.153c22.631-3.368,43.733,12.554,47.098,35.211L581.4,470.968l-14.068,2.144
	v148.808c0,11.329-9.48,20.821-20.797,20.821h-12.539c-11.315,0-20.796-9.492-20.796-20.821V481.072l-14.068,2.144L480.17,351.554
	l-16.209,16.228c-2.752,3.368-6.422,5.817-10.704,7.042l-80.433,21.433c-11.01,3.062-22.326-3.674-25.384-14.697
	C344.382,370.538,351.11,359.209,362.12,356.147z"/>
<path fill="none" stroke="#B777B3" stroke-width="20" stroke-miterlimit="10" d="M481.088,147.531
	c-22.938,0-41.593,20.821-41.593,46.847c0,25.72,18.655,46.847,41.593,46.847s41.593-20.821,41.593-46.847
	C522.681,168.658,504.025,147.531,481.088,147.531z"/>
<path fill="none" stroke="#B777B3" stroke-width="20" stroke-miterlimit="10" d="M263.948,504.036h83.186
	c15.202,0,27.525,12.338,27.525,27.558v83.283c0,15.219-12.323,27.557-27.525,27.557h-83.186c-15.201,0-27.524-12.338-27.524-27.557
	v-83.283C236.424,516.374,248.747,504.036,263.948,504.036z"/>
<path fill="none" stroke="#B777B3" stroke-width="20" stroke-miterlimit="10" d="M374.659,398.667v63.728
	c0,15.31-12.539,27.558-27.525,27.558h-82.879c-15.292,0-27.525-12.554-27.525-27.558v-82.977c0-15.31,12.539-27.557,27.525-27.557
	h-0.306h82.88c3.05,0,12.339,0,15.292,4.287"/>
<path fill="none" stroke="#B777B3" stroke-width="20" stroke-miterlimit="10" d="M176.833,301.833l-18.702-31.419
	c-7.646-13.166-3.364-30.312,9.787-37.967l9.234-5.304l62.024-36.95c13.15-7.655,30.277-3.368,37.923,9.798l42.205,71.648
	c7.646,13.167,3.364,30.313-9.787,37.968l-71.564,42.254c-11.927,7.042-29.056,0.577-37.619-9.527"/>
</svg>
