<?xml version="1.0" encoding="utf-8"?>
<!-- Generator: Adobe Illustrator 16.0.0, SVG Export Plug-In . SVG Version: 6.00 Build 0)  -->
<!DOCTYPE svg PUBLIC "-//W3C//DTD SVG 1.1//EN" "http://www.w3.org/Graphics/SVG/1.1/DTD/svg11.dtd">
<svg version="1.1" id="Layer_1" xmlns="http://www.w3.org/2000/svg" xmlns:xlink="http://www.w3.org/1999/xlink" x="0px" y="0px"
	 width="623.635px" height="603.95px" viewBox="-5.818 94.025 623.635 603.95"
	 enable-background="new -5.818 94.025 623.635 603.95" xml:space="preserve">
<g>
	<g>
		<path fill="none" stroke="#4BE57C" stroke-width="20" stroke-miterlimit="10" d="M466.65,254.475H275.4v-119.85
			c0-16.575,14.025-30.6,30.6-30.6h130.05c16.575,0,30.601,14.025,30.601,30.6V254.475z"/>
		<polygon fill="none" stroke="#4BE57C" stroke-width="20" stroke-miterlimit="10" points="503.625,311.85 239.7,311.85 
			275.4,254.475 466.65,254.475 		"/>
	</g>
	<g>
		<path fill="none" stroke="#4BE57C" stroke-width="20" stroke-miterlimit="10" d="M240.975,499.275H49.725V379.425
			c0-16.575,14.025-30.6,30.6-30.6h130.05c16.575,0,30.6,14.025,30.6,30.6V499.275z"/>
		<polygon fill="none" stroke="#4BE57C" stroke-width="20" stroke-miterlimit="10" points="276.675,555.375 12.75,555.375 
			49.725,499.275 240.975,499.275 		"/>
	</g>
	<g>
		<path fill="none" stroke="#4BE57C" stroke-width="20" stroke-miterlimit="10" d="M562.275,631.875h-191.25V510.75
			c0-16.575,14.024-30.6,30.6-30.6h130.05c16.575,0,30.601,14.024,30.601,30.6V631.875z"/>
		<polygon fill="none" stroke="#4BE57C" stroke-width="20" stroke-miterlimit="10" points="599.25,687.975 335.325,687.975 
			371.025,631.875 562.275,631.875 		"/>
	</g>
	<path fill="none" stroke="#4BE57C" stroke-width="20" stroke-miterlimit="10" d="M306,654.825
		c-24.225-5.101-48.45-12.75-70.125-25.5c-20.4-11.476-39.525-25.5-56.1-42.075"/>
	<path fill="none" stroke="#4BE57C" stroke-width="20" stroke-miterlimit="10" d="M508.725,223.875
		C564.825,268.5,599.25,337.35,599.25,413.85c0,21.676-2.55,43.351-8.925,63.75"/>
	<path fill="none" stroke="#4BE57C" stroke-width="20" stroke-miterlimit="10" d="M130.05,308.025
		C151.725,260.85,188.7,222.6,234.6,197.1"/>
</g>
</svg>
