<svg xmlns="http://www.w3.org/2000/svg" xmlns:xlink="http://www.w3.org/1999/xlink" version="1.1" x="0px" y="0px" viewBox="0 0 48 48" enable-background="new 0 0 48 48" xml:space="preserve"><g><g><path fill="none" stroke="#4be57c" stroke-width="2" stroke-miterlimit="10" d="M36.6,12.9h-15V3.5c0-1.3,1.1-2.4,2.4-2.4h10.2    c1.3,0,2.4,1.1,2.4,2.4V12.9z"></path><polygon fill="none" stroke="#4be57c" stroke-width="2" stroke-miterlimit="10" points="39.5,17.4 18.8,17.4 21.6,12.9 36.6,12.9       "></polygon></g><g><path fill="none" stroke="#4be57c" stroke-width="2" stroke-miterlimit="10" d="M18.9,32.1h-15v-9.4c0-1.3,1.1-2.4,2.4-2.4h10.2    c1.3,0,2.4,1.1,2.4,2.4V32.1z"></path><polygon fill="none" stroke="#4be57c" stroke-width="2" stroke-miterlimit="10" points="21.7,36.5 1,36.5 3.9,32.1 18.9,32.1       "></polygon></g><g><path fill="none" stroke="#4be57c" stroke-width="2" stroke-miterlimit="10" d="M44.1,42.5h-15V33c0-1.3,1.1-2.4,2.4-2.4h10.2    c1.3,0,2.4,1.1,2.4,2.4V42.5z"></path><polygon fill="none" stroke="#4be57c" stroke-width="2" stroke-miterlimit="10" points="47,46.9 26.3,46.9 29.1,42.5 44.1,42.5       "></polygon></g><path fill="none" stroke="#4be57c" stroke-width="2" stroke-miterlimit="10" d="M24,44.3c-1.9-0.4-3.8-1-5.5-2   c-1.6-0.9-3.1-2-4.4-3.3"></path><path fill="none" stroke="#4be57c" stroke-width="2" stroke-miterlimit="10" d="M39.9,10.5C44.3,14,47,19.4,47,25.4   c0,1.7-0.2,3.4-0.7,5"></path><path fill="none" stroke="#4be57c" stroke-width="2" stroke-miterlimit="10" d="M10.2,17.1c1.7-3.7,4.6-6.7,8.2-8.7"></path></g></svg>