<?xml version="1.0" encoding="utf-8"?>
<!-- Generator: Adobe Illustrator 16.0.0, SVG Export Plug-In . SVG Version: 6.00 Build 0)  -->
<!DOCTYPE svg PUBLIC "-//W3C//DTD SVG 1.1//EN" "http://www.w3.org/Graphics/SVG/1.1/DTD/svg11.dtd">
<svg version="1.1" id="Layer_1" xmlns="http://www.w3.org/2000/svg" xmlns:xlink="http://www.w3.org/1999/xlink" x="0px" y="0px"
	 width="1600px" height="900px" viewBox="0 0 1600 900" enable-background="new 0 0 1600 900" xml:space="preserve">
<g>
	<path fill="#FFFFFF" d="M576.474,674.101c39.601,0,72-32.399,72-72s-32.399-72-72-72c-39.6,0-72,32.399-72,72
		C505.374,641.7,536.874,674.101,576.474,674.101z"/>
	<path fill="#FFFFFF" d="M621.474,693h-92.699c-41.399,0-73.801,27.899-73.801,69.3V882h243V762.3
		C697.074,721.8,663.773,693,621.474,693z"/>
	<path fill="#FFFFFF" d="M1091.273,596.7c0,39.6,32.399,72,72,72c39.6,0,72-32.4,72-72c0-39.602-32.4-72-72-72
		C1123.673,524.7,1091.273,557.101,1091.273,596.7z"/>
	<path fill="#FFFFFF" d="M1211.873,693h-92.699c-43.199,0-80.1,28.8-80.1,69.3V882h243V762.3
		C1282.074,720.899,1253.273,693,1211.873,693z"/>
	<path fill="#FFFFFF" d="M869.874,673.2c40.5,0,72.899-32.4,72.899-72c0-39.602-32.399-72-72.899-72s-72.9,32.398-72.9,72
		C796.974,640.8,829.374,673.2,869.874,673.2z"/>
	<path fill="#FFFFFF" d="M969.773,759.601c-18-63-66.601-66.601-72.899-66.601h-0.899h-27.899h-27.9h-0.897
		c-5.4,0-54,3.601-72.9,66.601L718.675,882h149.399h149.399L969.773,759.601z"/>
	<polyline fill="#FFFFFF" points="814.074,254.7 814.074,18 463.074,18 463.074,477 814.074,477 814.074,280.8 	"/>
	<polyline fill="#AA72B0" points="814.074,280.8 805.074,272.7 730.374,206.101 742.974,191.7 814.074,254.7 	"/>
	<path fill="#FFFFFF" d="M1091.273,161.101c0,39.6,32.399,72,72,72c39.6,0,72-32.4,72-72c0-39.601-32.4-72-72-72
		C1123.673,89.101,1091.273,121.5,1091.273,161.101z"/>
	<path fill="#FFFFFF" d="M1204.674,261h-42.301h-38.699c-22.5,0-42.3,7.2-54.9,20.7l-72.898,72.9h-70.201l-93.6-82.8l-16.199-14.4
		l-12.602,14.4l9,8.1l19.801,17.1l63.899,57.601l0.899,0.899c-11.7,3.601-20.7,14.399-20.7,27.899c0,16.2,13.5,29.7,29.7,29.7
		h113.398l34.2-34.2V486h107.999h108V320.399C1271.273,282.601,1242.473,261,1204.674,261z"/>
</g>
</svg>
