<?xml version="1.0" encoding="utf-8"?>
<!-- Generator: Adobe Illustrator 16.0.3, SVG Export Plug-In . SVG Version: 6.00 Build 0)  -->
<!DOCTYPE svg PUBLIC "-//W3C//DTD SVG 1.1//EN" "http://www.w3.org/Graphics/SVG/1.1/DTD/svg11.dtd">
<svg version="1.1" id="Layer_1" xmlns="http://www.w3.org/2000/svg" xmlns:xlink="http://www.w3.org/1999/xlink" x="0px" y="0px"
	 width="1600px" height="900px" viewBox="0 0 1600 900" enable-background="new 0 0 1600 900" xml:space="preserve">
<g>
	<path fill="#AA73B1" d="M1029.226,551.205c20.52-5.904,35.595-24.813,35.595-47.215c0-27.116-22.05-49.166-49.158-49.166
		c-27.116,0-49.167,22.05-49.167,49.166c0,22.393,15.066,41.302,35.586,47.215c-24.588,6.102-42.894,28.287-42.894,54.729v76.095
		h13.312h7.38v107.677h26.631V682.028h18.261v107.677h26.631V682.028h7.38h13.312v-76.095
		C1072.11,579.492,1053.805,557.307,1029.226,551.205z M1015.662,526.526c-12.438,0-22.536-10.106-22.536-22.526
		c0-12.43,10.099-22.527,22.536-22.527c12.42,0,22.527,10.098,22.527,22.527C1038.189,516.42,1028.082,526.526,1015.662,526.526z"/>
	<path fill="#AA73B1" d="M1224.382,639.999v-41.968c0-21.879-14.851-40.167-34.938-45.827c20.817-5.671,36.188-24.688,36.188-47.286
		c0-27.036-22.005-49.032-49.04-49.032c-27.036,0-49.051,21.996-49.051,49.032c0,7.668,1.818,14.895,4.969,21.365
		c-1.53-0.818-3.402-1.403-5.851-1.476c-11.925-0.369-18.297,18.171-21.365,23.112c8.576,4.959,32.993,5.508,32.993-11.484
		c0-0.225-0.018-0.594-0.063-1.053c6.417,8.063,15.3,14.04,25.506,16.821c-20.088,5.66-34.947,23.948-34.947,45.827l0.027,41.652
		l-20.988,81.171h33.084v68.851h26.631v-68.851h18.108v68.851h26.631v-68.851h33.075L1224.382,639.999z M1154.289,506.097
		c6.192-2.547,14.373-6.867,21.321-13.59c6.102,5.076,14.094,9.306,23.193,10.458c0.054,0.657,0.197,1.296,0.197,1.962
		c0,12.357-10.053,22.419-22.409,22.419C1164.63,527.346,1154.91,517.904,1154.289,506.097z M1142.238,694.232l12.646-48.825
		l0.521-47.366c0-11.673,9.495-21.178,21.168-21.178s21.177,9.505,21.177,21.178l0.027,43.263l13.149,52.929H1142.238
		L1142.238,694.232z"/>
	<path fill="#AA73B1" d="M417.973,551.205c20.52-5.904,35.595-24.813,35.595-47.215c0-27.116-22.05-49.166-49.158-49.166
		c-27.108,0-49.158,22.05-49.158,49.166c0,22.393,15.066,41.302,35.586,47.215c-24.588,6.102-42.894,28.287-42.894,54.729v76.14
		h20.709v107.632h26.622V682.073h-20.7v-76.14c0-16.443,13.383-29.816,29.826-29.816c16.443,0,29.835,13.373,29.835,29.816v76.14
		h-20.7v107.632h26.631V682.038h20.7v-76.104C460.849,579.492,442.561,557.307,417.973,551.205z M381.874,503.99
		c0-12.429,10.107-22.526,22.527-22.526s22.527,10.098,22.527,22.526c0,12.421-10.107,22.527-22.527,22.527
		C391.98,526.526,381.874,516.42,381.874,503.99z"/>
	<path fill="#AA73B1" d="M618.897,598.041c0-21.879-14.85-40.167-34.938-45.828c20.817-5.67,36.189-24.688,36.189-47.286
		c0-27.036-21.996-49.032-49.041-49.032s-49.041,21.996-49.041,49.032c0,7.668,1.818,14.895,4.968,21.366
		c-1.529-0.819-3.401-1.404-5.85-1.477c-11.925-0.369-18.297,18.171-21.366,23.112c8.577,4.959,32.994,5.508,32.994-11.484
		c0-0.225-0.019-0.594-0.063-1.053c6.408,8.064,15.301,14.04,25.507,16.821c-20.079,5.661-34.938,23.949-34.938,45.828l0.027,41.651
		l-20.988,81.171h33.084v68.851h26.631v-68.851h18.108v68.851h26.631v-68.851h33.065l-20.951-80.855v-41.967H618.897z
		 M571.099,527.346c-11.961,0-21.672-9.441-22.293-21.249c6.191-2.547,14.373-6.867,21.32-13.59
		c6.111,5.076,14.095,9.306,23.193,10.458c0.054,0.657,0.198,1.296,0.198,1.962C593.509,517.284,583.455,527.346,571.099,527.346z"
		/>
	<path fill="#AA73B1" d="M891.858,470.816v-91.151c0-53.577-43.596-97.155-97.182-97.155c-53.56,0-97.155,43.587-97.155,97.155
		v91.151h25.47l-35.046,184.077h67.392v134.82h26.632v-134.82H808.6v134.82h26.631v-134.82h66.168L866.37,470.816H891.858
		L891.858,470.816z M794.686,309.132c4.518,0,8.919,0.468,13.203,1.287c-0.657,6.731-6.282,12.033-13.194,12.033
		c-6.903,0-12.528-5.302-13.176-12.033C785.784,309.6,790.177,309.132,794.686,309.132z M865.228,470.16H724.161v-90.495
		c0-24.85,12.951-46.692,32.418-59.257c4.905,16.507,20.034,28.666,38.115,28.666s33.219-12.15,38.124-28.656
		c19.467,12.563,32.418,34.406,32.418,59.247v90.495H865.228z"/>
	<path fill="#AA73B1" d="M926.652,208.791c-8.649-12.204-23.121-32.625-44.451-32.625c-1.989,0-4.005,0.18-6.039,0.567
		c-1.106,0.216-1.979,0.621-3.006,0.9c-9.09-35.442-41.22-61.749-79.452-61.749c-45.278,0-82.106,36.828-82.106,82.098
		c0,45.279,36.837,82.107,82.106,82.107c30.483,0,57.078-16.731,71.244-41.463c6.598,4.176,14.877,6.543,24.643,6.543
		c14.265,0,29.961-4.968,39.042-12.375l10.646-8.658l-8.973-10.368C929.344,212.634,928.119,210.87,926.652,208.791z
		 M811.542,145.512c10.09,3.438,18.883,9.684,25.426,17.838c-11.854-1.251-23.202-4.698-30.42-7.866
		C808.519,151.73,810.147,148.428,811.542,145.512z M738.22,197.981c0-26.901,19.26-49.374,44.712-54.405
		c-11.395,21.636-28.179,45.108-44.677,55.188C738.255,198.504,738.22,198.252,738.22,197.981z M793.704,253.458
		c-20.754,0-38.861-11.475-48.375-28.395c19.242-9.063,35.56-28.179,47.683-46.602c13.923,6.885,34.308,11.943,53.055,11.943
		c0.854,0,1.674-0.081,2.521-0.099c0.351,2.52,0.594,5.067,0.594,7.677C849.181,228.582,824.296,253.458,793.704,253.458z
		 M889.591,218.538c-12.627,0-13.59-5.922-13.978-8.388c-0.837-6.03,3.321-6.831,5.563-7.263c0.333-0.063,0.684-0.099,1.017-0.099
		c5.436,0,12.456,7.74,17.649,14.472C896.673,218.034,893.182,218.538,889.591,218.538z"/>
</g>
</svg>
