<?xml version="1.0" encoding="utf-8"?>
<!-- Generator: Adobe Illustrator 16.0.0, SVG Export Plug-In . SVG Version: 6.00 Build 0)  -->
<!DOCTYPE svg PUBLIC "-//W3C//DTD SVG 1.1//EN" "http://www.w3.org/Graphics/SVG/1.1/DTD/svg11.dtd">
<svg version="1.1" id="Layer_1" xmlns="http://www.w3.org/2000/svg" xmlns:xlink="http://www.w3.org/1999/xlink" x="0px" y="0px"
	 width="1600px" height="900px" viewBox="0 0 1600 900" enable-background="new 0 0 1600 900" xml:space="preserve">
<path fill="#FFFFFF" d="M954.377,496.476c0,102.366-37.251,252.848-125.577,314.775C806.903,827.208,798.587,837,766.871,837
	c-22.348,0-48.313-0.414-61.713-13.401c-10.433-10.231-20.638-15.316-30.861-15.316c-10.431,0-20.637,5.085-31.068,15.316
	C630.026,836.586,604.061,837,581.507,837c-31.716,0-40.005-9.792-61.713-25.749c-88.551-61.929-125.793-212.409-125.793-314.775
	c0-114.497,77.049-193.032,183.672-190.917c24.265-0.63,62.793,1.503,69.597,16.821c1.918,4.257,3.627,6.813,10.01,8.091
	c0-1.07,0.207-2.556,0.414-4.05c0.225-2.763,0.225-7.659,0.225-13.401c0-2.97-0.639-6.174-1.08-9.369
	c-0.414-3.411-0.414-7.029-1.476-10.638c-1.908-7.029-2.997-15.111-6.392-22.347c-1.483-3.618-2.979-7.452-4.473-11.061
	c-1.485-3.618-3.834-6.813-5.742-10.008c-1.917-3.393-3.843-6.597-5.535-9.567c-1.503-3.204-4.059-5.319-5.967-7.875
	c-8.082-9.369-13.401-15.75-13.401-15.75l-1.069-1.053c-3.188-4.05-2.765-9.792,1.276-13.203c3.609-2.988,8.73-2.772,12.143,0.423
	c0,0,6.804,6.174,17.026,15.543c2.331,2.556,5.535,4.887,7.875,8.082c2.351,3.204,4.879,6.597,7.668,10.215
	c0.848,1.278,1.908,2.556,2.979,3.834c5.112-15.534,18.521-39.798,54.054-56.403c55.559-25.542,91.944-9.36,91.944-9.36
	c8.289,3.609,13.41,13.194,11.493,21.285c0,0-19.604,87.471-146.862,61.929c0.423,0.639,0.648,1.494,1.063,2.124
	c5.11,8.091,7.668,17.244,11.068,25.749c1.701,4.041,2.331,8.523,3.385,12.348c0.854,4.05,2.143,7.875,2.35,11.493
	c1.062,7.236,1.908,13.41,1.908,18.306v2.557c5.524-1.278,7.027-3.618,9.171-7.875c7.235-15.111,46.809-17.442,69.372-16.821
	C899.054,307.692,954.377,381.979,954.377,496.476z"/>
<path fill="#FFFFFF" d="M1011.203,411.345c-11.772,0-21.276-9.529-21.276-21.275c0-58.681-47.754-106.425-106.407-106.425
	c-11.779,0-21.283-9.531-21.283-21.285c0-11.754,9.513-21.285,21.283-21.285c82.125,0,148.979,66.834,148.979,148.985
	C1032.488,401.814,1022.957,411.345,1011.203,411.345z"/>
<path fill="#FFFFFF" d="M1096.334,411.345c-11.763,0-21.276-9.529-21.276-21.275c0-105.625-85.923-191.556-191.538-191.556
	c-11.779,0-21.283-9.531-21.283-21.285s9.513-21.285,21.283-21.285c129.089,0,234.101,105.021,234.101,234.117
	C1117.61,401.814,1108.097,411.345,1096.334,411.345z"/>
<path fill="#FFFFFF" d="M1181.465,411.345c-11.763,0-21.275-9.529-21.275-21.275c0-152.577-124.129-276.688-276.67-276.688
	c-11.779,0-21.283-9.531-21.283-21.285c0-11.754,9.513-21.285,21.283-21.285c176.041,0,319.239,143.217,319.239,319.248
	C1202.75,401.814,1193.219,411.345,1181.465,411.345z"/>
</svg>
