<?xml version="1.0" encoding="utf-8"?>
<!-- Generator: Adobe Illustrator 16.0.3, SVG Export Plug-In . SVG Version: 6.00 Build 0)  -->
<!DOCTYPE svg PUBLIC "-//W3C//DTD SVG 1.1//EN" "http://www.w3.org/Graphics/SVG/1.1/DTD/svg11.dtd">
<svg version="1.1" id="Layer_1" xmlns="http://www.w3.org/2000/svg" xmlns:xlink="http://www.w3.org/1999/xlink" x="0px" y="0px"
	 width="1600px" height="900px" viewBox="0 0 1600 900" enable-background="new 0 0 1600 900" xml:space="preserve">
<g>
	<path fill="#6EC173" d="M1061,694.53v0.09c-0.45-0.18-0.9-0.261-1.35-0.54C1060.1,694.26,1060.55,694.44,1061,694.53z"/>
	<g>
		<ellipse fill="#6EC173" cx="815.795" cy="231.165" rx="89.199" ry="97.614"/>
		<path fill="#6EC173" d="M974.42,414H646.55c35.37-47.07,101.16-75.78,163.98-75.78C873.26,338.22,939.05,366.93,974.42,414z"/>
		<path fill="#6EC173" d="M1083.77,675.36c-5.489,7.109-17.64,14.939-31.77,10.17c-0.45-0.09-0.9-0.271-1.35-0.45
			c-0.9-0.271-1.701-0.72-2.61-1.17c-2.7-1.27-5.4-3.061-8.091-5.409c-19.08-16.2-27.99-38.34-16.021-63
			c2.799-5.67,6.3-9.72,9.99-12.591c0.621-0.45,1.17-0.909,1.8-1.27c0.54-0.449,1.17-0.81,1.701-1.07
			c2.61-1.629,5.22-2.799,7.74-3.69c0.621-0.27,1.26-0.549,1.8-0.72c1.791-0.63,3.42-1.27,5.04-1.8c5.31-1.98,9.09-3.96,9-9.189
			v-39.42c0,0,29.16,25.209,34.74,62.55C1101.41,645.66,1090.79,666.27,1083.77,675.36z"/>
		<path fill="#6EC173" d="M581.12,678.51c-19.08,16.209-36.811,5.94-43.92-3.149c-7.021-9.091-19.035-29.7-13.455-67.051
			c5.67-37.35,33.255-62.55,33.255-62.55v39.42c0,13.41,26.685,5.68,38.655,30.33C607.625,640.17,600.11,662.31,581.12,678.51z"/>
	</g>
	<path fill="#6EC173" d="M1047.275,585.9c1.881-0.721,4.319-1.53,5.57-2.25V422.1h-486V583.65c0,0.72,4.869,1.529,6.75,2.25
		c8.91,3.06,23.499,7.839,31.681,24.75c12.798,26.189,5.418,53.1-18.981,73.809c-5.661,4.851-10.439,8.082-19.439,9.612V773.1h486
		v-79.028c-6.201-1.53-12.231-4.762-17.91-9.612c-24.381-20.709-31.041-47.619-18.262-73.809
		C1024.855,593.739,1038.355,588.951,1047.275,585.9z M891.314,536.625l20.007-11.565c2.709-1.565,6.174-0.63,7.73,2.07
		c1.558,2.7,0.63,6.174-2.069,7.731l-20.008,11.547c-0.899,0.531-1.862,0.756-2.825,0.756c-1.953,0-3.853-0.999-4.905-2.826
		C887.678,541.656,888.614,538.173,891.314,536.625z M853.928,503.37l11.547-20.007c1.566-2.709,5.05-3.637,7.731-2.07
		c2.709,1.566,3.636,5.031,2.07,7.731l-11.565,20.007c-1.035,1.809-2.934,2.826-4.905,2.826c-0.944,0-1.935-0.243-2.808-0.757
		C853.298,509.535,852.362,506.07,853.928,503.37z M804.923,470.16c0-3.132,2.529-5.661,5.661-5.661s5.661,2.529,5.661,5.661v23.112
		c0,3.113-2.529,5.643-5.661,5.643s-5.661-2.529-5.661-5.643V470.16z M747.953,481.293c2.709-1.566,6.174-0.648,7.73,2.061
		l11.565,20.025c1.548,2.709,0.63,6.174-2.07,7.731c-0.899,0.513-1.862,0.756-2.825,0.756c-1.953,0-3.853-1.018-4.905-2.826
		l-11.547-20.025C744.326,486.297,745.244,482.832,747.953,481.293z M685.322,589.761c0-3.132,2.547-5.661,5.661-5.661h23.111
		c3.132,0,5.661,2.529,5.661,5.661c0,3.114-2.529,5.644-5.661,5.644h-23.111C687.869,595.404,685.322,592.875,685.322,589.761z
		 M729.863,642.906l-20.025,11.547c-0.9,0.513-1.863,0.756-2.826,0.756c-1.953,0-3.852-1.017-4.904-2.826
		c-1.566-2.709-0.631-6.174,2.069-7.73l20.025-11.548c2.69-1.565,6.156-0.63,7.713,2.07S732.572,641.34,729.863,642.906z
		 M731.924,544.338c-1.035,1.81-2.934,2.826-4.904,2.826c-0.945,0-1.936-0.243-2.809-0.756l-20.025-11.565
		c-2.709-1.548-3.636-5.013-2.069-7.713c1.565-2.7,5.031-3.636,7.73-2.07l20.025,11.548
		C732.572,538.173,733.48,541.638,731.924,544.338z M837.314,732.195l-28.018,7.119c-0.459,0.126-0.936,0.18-1.386,0.18
		c-2.529,0-4.833-1.701-5.481-4.275c-0.773-3.023,1.071-6.102,4.096-6.876l27.999-7.119c3.023-0.756,6.12,1.054,6.876,4.096
		C842.174,728.352,840.338,731.43,837.314,732.195z M837.332,716.463l-49.869,12.942c-0.477,0.144-0.945,0.188-1.422,0.188
		c-2.511,0-4.815-1.691-5.463-4.238c-0.792-3.024,1.017-6.12,4.041-6.912l49.869-12.942c3.042-0.81,6.12,1.035,6.912,4.041
		C842.174,712.602,840.355,715.68,837.332,716.463z M837.332,700.326l-49.869,12.951c-0.477,0.126-0.945,0.18-1.422,0.18
		c-2.511,0-4.815-1.692-5.463-4.239c-0.792-3.023,1.017-6.102,4.041-6.894l49.869-12.951c3.042-0.792,6.12,1.035,6.912,4.059
		C842.174,696.465,840.355,699.561,837.332,700.326z M837.332,684.207l-49.869,12.951c-0.477,0.126-0.945,0.18-1.422,0.18
		c-2.511,0-4.815-1.692-5.463-4.239c-0.792-3.023,1.017-6.119,4.041-6.894l49.869-12.951c3.042-0.81,6.12,1.035,6.912,4.059
		C842.174,680.346,840.355,683.424,837.332,684.207z M857.6,635.904c-13.535,15.201-20.394,24.291-20.394,27.018
		c0,2.547-1.701,4.797-4.185,5.463c-43.578,11.799-45.036,11.916-45.981,11.916c-0.108-0.018-0.188-0.018-0.279-0.018
		c-5.31-0.243-6.659-5.221-8.1-10.513c-2.07-7.596-5.535-20.304-17.613-33.876c-20.88-23.48-27.018-56.844-15.272-83.007
		c10.512-23.418,33.678-36.828,63.558-36.828s53.055,13.41,63.558,36.828C884.636,579.06,878.489,612.423,857.6,635.904z
		 M919.061,652.392c-1.053,1.81-2.951,2.826-4.904,2.826c-0.963,0-1.936-0.243-2.826-0.773l-20.007-11.547
		c-2.709-1.566-3.636-5.031-2.07-7.731c1.566-2.7,5.031-3.636,7.731-2.07l20.007,11.565
		C919.691,646.227,920.618,649.692,919.061,652.392z M930.185,595.422h-23.111c-3.132,0-5.661-2.529-5.661-5.661
		s2.529-5.661,5.661-5.661h23.111c3.133,0,5.661,2.529,5.661,5.661S933.308,595.422,930.185,595.422z"/>
</g>
</svg>
