<?xml version="1.0" encoding="utf-8"?>
<!-- Generator: Adobe Illustrator 16.0.3, SVG Export Plug-In . SVG Version: 6.00 Build 0)  -->
<!DOCTYPE svg PUBLIC "-//W3C//DTD SVG 1.1//EN" "http://www.w3.org/Graphics/SVG/1.1/DTD/svg11.dtd">
<svg version="1.1" id="Layer_1" xmlns="http://www.w3.org/2000/svg" xmlns:xlink="http://www.w3.org/1999/xlink" x="0px" y="0px"
	 width="1600px" height="900px" viewBox="0 0 1600 900" enable-background="new 0 0 1600 900" xml:space="preserve">
<g>
	<path fill="#40C2D1" d="M571.553,129.636c2.916-1.251,6.066-2.079,9.388-2.412c17.604-1.746,33.3,11.205,35.055,28.944
		c1.764,17.739-11.079,33.543-28.683,35.289c-11.179,1.107-21.564-3.726-28.116-11.934c-8.901,7.479-20.196,31.896-38.034-1.062
		C543.959,196.713,543.167,139.509,571.553,129.636z"/>
	<path fill="#40C2D1" d="M645.74,218.052c-1.107-8.892-8.667-15.57-17.622-15.579l-17.838-0.018L585.89,223.02l-24.435-20.619
		l-20.871-0.018c-9.198-0.009-16.893,7.002-17.721,16.164l-8.487,92.943h143.028L645.74,218.052z"/>
	<path fill="#40C2D1" d="M482.822,344.034c2.916-1.251,6.065-2.079,9.387-2.412c17.604-1.746,33.3,11.205,35.055,28.944
		c1.765,17.738-11.079,33.543-28.683,35.289c-11.178,1.106-21.564-3.727-28.116-11.935c-8.9,7.479-20.196,31.896-38.034-1.062
		C455.229,411.12,454.427,353.916,482.822,344.034z"/>
	<path fill="#40C2D1" d="M557,432.459c-1.107-8.892-8.667-15.57-17.622-15.579l-17.838-0.018l-24.381,20.564l-24.436-20.619
		l-20.871-0.018c-9.197-0.009-16.893,7.002-17.721,16.164l-8.496,92.934h143.028L557,432.459z"/>
	<path fill="#40C2D1" d="M577.142,563.859c2.916-1.251,6.066-2.079,9.388-2.412c17.604-1.746,33.3,11.205,35.055,28.943
		c1.764,17.739-11.079,33.543-28.683,35.289c-11.179,1.107-21.564-3.726-28.116-11.934c-8.901,7.479-20.196,31.896-38.034-1.063
		C549.548,630.936,548.756,573.732,577.142,563.859z"/>
	<path fill="#40C2D1" d="M651.329,652.275c-1.107-8.893-8.667-15.57-17.622-15.579l-17.838-0.019l-24.381,20.565l-24.436-20.619
		l-20.871-0.018c-9.197-0.01-16.893,7.002-17.721,16.163l-8.478,92.935h143.027L651.329,652.275z"/>
	<path fill="#40C2D1" d="M793.691,666.621c2.916-1.251,6.065-2.079,9.387-2.412c17.604-1.746,33.3,11.205,35.055,28.944
		c1.764,17.738-11.079,33.543-28.683,35.289c-11.179,1.106-21.564-3.727-28.116-11.935c-8.901,7.479-20.196,31.896-38.034-1.062
		C766.097,733.707,765.296,676.503,793.691,666.621z"/>
	<path fill="#40C2D1" d="M867.869,755.046c-1.107-8.892-8.667-15.57-17.622-15.579l-17.838-0.018l-24.381,20.564l-24.436-20.619
		l-20.871-0.018c-9.197-0.009-16.893,7.002-17.721,16.164l-8.478,92.934h143.027L867.869,755.046z"/>
	<path fill="#40C2D1" d="M787.985,285.921l27.378,0.045l8.388,36.054l1.81,7.785l7.739,1.998
		c10.638,2.745,20.943,6.976,30.636,12.573l6.822,3.942l6.705-4.149l31.293-19.35l19.332,19.386L908.9,375.03l-4.23,6.795
		l4.068,6.894c5.787,9.792,10.179,20.305,13.05,31.239l2.016,7.668l7.713,1.818l35.128,8.289l-0.046,27.378l-34.965,8.136
		l-7.767,1.809l-2.016,7.713c-2.862,10.989-7.291,21.592-13.158,31.51l-4.06,6.866l4.194,6.786l18.9,30.582l-19.387,19.332
		l-30.717-19.116l-6.723-4.185l-6.858,3.969c-9.702,5.616-20.231,9.892-31.284,12.718l-7.749,1.979l-1.836,7.776l-8.36,35.433
		l-27.369-0.045l-8.361-35.901l-1.782-7.668l-7.596-2.069c-10.701-2.916-20.935-7.245-30.411-12.87l-6.876-4.077l-6.795,4.203
		l-31.59,19.53l-19.332-19.387l19.881-31.95l4.158-6.687l-3.906-6.831c-5.391-9.441-9.504-19.494-12.213-29.871l-2.007-7.686
		l-7.731-1.827l-36.765-8.676l0.036-27.379l36.98-8.612l7.695-1.791l2.052-7.623c2.772-10.287,6.912-20.224,12.294-29.529
		l3.951-6.831l-4.149-6.714l-19.971-32.31l19.386-19.332l32.059,19.953l6.75,4.202l6.867-4.005
		c9.368-5.463,19.403-9.656,29.825-12.474l7.597-2.052l1.809-7.659L787.985,285.921 M802.259,517.032h0.019
		c36.09,0,65.492-29.358,65.537-65.448c0.027-17.505-6.768-33.975-19.125-46.377c-12.356-12.402-28.809-19.242-46.422-19.269
		c-36.08,0-65.483,29.357-65.537,65.447c-0.055,36.145,29.304,65.592,65.43,65.646H802.259 M777.545,272.718l-11.025,46.72
		c-11.709,3.158-22.787,7.839-33.029,13.814l-40.941-25.479l-34.2,34.101l25.471,41.202c-5.877,10.151-10.494,21.114-13.617,32.697
		l-47.169,10.979l-0.072,48.294l46.944,11.079c3.06,11.718,7.649,22.815,13.518,33.084l-25.407,40.824l34.102,34.2l40.491-25.029
		c10.413,6.174,21.717,10.989,33.669,14.247l10.728,46.089l48.294,0.072l10.764-45.612c12.285-3.132,23.923-7.884,34.633-14.085
		l39.6,24.643l34.2-34.102l-24.399-39.474c6.372-10.773,11.331-22.482,14.563-34.902l45.152-10.512l0.072-48.294l-45.314-10.692
		c-3.231-12.294-8.146-23.904-14.454-34.596l24.705-39.708l-34.102-34.2l-40.193,24.849c-10.513-6.065-21.889-10.809-33.931-13.923
		l-10.764-46.242L777.545,272.718L777.545,272.718z M802.277,503.838c-0.027,0-0.055,0-0.081,0
		c-28.908-0.045-52.309-23.517-52.272-52.425c0.045-28.881,23.473-52.263,52.344-52.272c0.027,0,0.055,0,0.081,0
		c28.917,0.045,52.317,23.518,52.272,52.426C854.576,480.447,831.148,503.838,802.277,503.838L802.277,503.838z"/>
	<g>
		<circle fill="#40C2D1" cx="810.674" cy="77.391" r="32.112"/>
	</g>
	<g>
		<path fill="#40C2D1" d="M881.306,229.518l-11.664-93.429c-1.106-8.892-8.667-15.57-17.622-15.579l-87.533-0.09
			c-9.198-0.009-16.894,7.002-17.73,16.164l-8.478,92.934H881.306z"/>
	</g>
	<g>
		<circle fill="#40C2D1" cx="1020.824" cy="159.183" r="32.112"/>
	</g>
	<g>
		<path fill="#40C2D1" d="M1091.456,311.31l-11.664-93.429c-1.106-8.892-8.667-15.57-17.622-15.579l-87.534-0.09
			c-9.198-0.009-16.893,7.002-17.729,16.164l-8.487,92.934H1091.456z"/>
	</g>
	<g>
		<circle fill="#40C2D1" cx="1104.848" cy="373.581" r="32.112"/>
	</g>
	<g>
		<path fill="#40C2D1" d="M1175.48,525.717l-11.664-93.429c-1.107-8.892-8.667-15.57-17.622-15.579l-87.534-0.09
			c-9.198-0.009-16.893,7.002-17.73,16.164l-8.478,92.934H1175.48L1175.48,525.717z"/>
	</g>
	<g>
		<circle fill="#40C2D1" cx="1016.117" cy="587.808" r="32.112"/>
	</g>
	<g>
		<path fill="#40C2D1" d="M1086.749,739.944l-11.664-93.43c-1.106-8.892-8.667-15.569-17.622-15.579l-87.534-0.09
			c-9.198-0.009-16.893,7.002-17.729,16.164l-8.479,92.935H1086.749z"/>
	</g>
</g>
</svg>
