<?xml version="1.0" encoding="utf-8"?>
<!-- Generator: Adobe Illustrator 16.0.0, SVG Export Plug-In . SVG Version: 6.00 Build 0)  -->
<!DOCTYPE svg PUBLIC "-//W3C//DTD SVG 1.1//EN" "http://www.w3.org/Graphics/SVG/1.1/DTD/svg11.dtd">
<svg version="1.1" id="Layer_1" xmlns="http://www.w3.org/2000/svg" xmlns:xlink="http://www.w3.org/1999/xlink" x="0px" y="0px"
	 width="1600px" height="900px" viewBox="0 0 1600 900" enable-background="new 0 0 1600 900" xml:space="preserve">
<g>
	<path fill="#FFFFFF" d="M1233.359,674.641c3.728-23.263,0.318-42.198-10.364-56.168c-1.295-1.709-2.703-3.116-4.111-4.562
		c21.489-5.164,37.57-24.438,37.57-47.477V48.987C1256.464,21.978,1234.486,0,1207.477,0H379.567c-27,0-48.969,21.978-48.969,48.987
		v517.439c0,25.227,19.255,45.805,43.806,48.451c-2.348,10.346-2.602,22.015-0.338,35.233c0.394,2.317,1.604,4.262,3.22,5.734
		c-12.542,8.862-20.822,23.442-20.822,39.938v194.051c0,5.623,4.543,10.167,10.167,10.167c5.614,0,10.167-4.544,10.167-10.167
		V695.782c0-15.81,12.862-28.644,28.662-28.644h297.524c15.8,0,28.643,12.834,28.643,28.644v194.051
		c0,5.623,4.544,10.167,10.168,10.167c5.623,0,10.167-4.544,10.167-10.167V695.782c0-21.704-14.289-39.938-33.862-46.357
		c21.104-2.338,43.768-8.534,63.378-22.165c4.957-3.455,9.173-7.65,13.359-11.866h124.522c0.104,0.328,0.104,0.666,0.196,1.005
		c-6.036,3.136-12.505,7.839-17.902,14.843c-10.364,13.425-13.772,31.562-10.74,53.651c-10.308,8.976-16.974,22.054-16.974,36.765
		v167.688c0,5.623,4.544,10.167,10.157,10.167c5.623,0,10.167-4.544,10.167-10.167v-167.68c0-15.81,12.834-28.644,28.645-28.644
		h297.515c15.811,0,28.671,12.834,28.671,28.644v167.688c0,5.624,4.535,10.169,10.158,10.169s10.148-4.545,10.148-10.169V721.665
		C1269.4,699.181,1254.061,680.358,1233.359,674.641z M384.309,592.59c-0.713,0.957-1.136,2.084-1.783,3.079
		c-0.958-0.301-1.906-0.592-2.958-0.592c-15.801,0-28.644-12.843-28.644-28.644V48.987c0-15.8,12.843-28.662,28.644-28.662h827.909
		c15.801,0,28.661,12.861,28.661,28.662v517.439c0,15.8-12.86,28.644-28.661,28.644h-16.955c1.276-13.098,0.893-28.859-2.439-47.927
		l-13.068-156.169c0-51.728-30.191-96.424-73.79-117.744v-81.948c0-5.624-4.544-10.167-10.167-10.167H483.052
		c-5.614,0-10.167,4.544-10.167,10.167v109.398c-43.41,23.104-73.058,68.776-73.058,121.292c0,52.762,29.929,98.604,73.677,121.612
		c1.314,4.112,5.004,7.126,9.548,7.126h5.313c-0.911,1.803-2,3.529-3.652,5.135c-14.054,13.68-49.306,15.997-62.759,15.565
		C419.598,571.636,398.447,574.133,384.309,592.59z M1080.898,201.448v18.476H493.209v-18.476H1080.898z M769.902,610.53
		c-46.312,32.351-117.463,15.228-118.158,15.049c-5.501-1.333-10.975,1.99-12.326,7.407c-1.352,5.454,1.962,10.956,7.407,12.316
		c0.535,0.122,3.191,0.751,7.21,1.512H405.45c-3.924,0-7.717,0.592-11.369,1.465c-0.019-0.563,0.141-1.07,0.038-1.634
		c-3.117-18.017-1.014-32.031,6.252-41.599c8.693-11.48,22.588-13.303,22.325-13.358c5.576,0.233,53.529,0.778,76.174-21.256
		c4.271-4.168,7.304-8.992,9.267-14.23c9.389,2.026,19.096,3.154,29.057,3.154c15.208,0,29.788-2.582,43.484-7.163
		c1.708,6.806,5.183,13.04,10.523,18.239c22.719,22.109,70.897,21.452,75.959,21.255c3.37,0,78.934-0.609,99.184-50.93l41.758,4.487
		C803.004,574.442,790.189,596.383,769.902,610.53z M601.707,550.71h132.408c-24.223,20.165-66.478,20.663-67.229,20.663
		c-12.468,0.319-47.504-1.84-61.528-15.519C603.706,554.249,602.617,552.521,601.707,550.71z M918.664,595.068H810.946
		c7.727-12.702,13.029-27.582,16.204-44.358h91.664l0.46,41.42C918.993,592.965,918.881,594.102,918.664,595.068z M864.674,312.63
		c-40.096,0-72.7,32.614-72.7,72.682c0,40.097,32.613,72.701,72.7,72.701c20.889,0,39.6-8.994,52.873-23.142l1.033,95.504h-90.764
		c-0.122-0.159-0.142-0.356-0.253-0.497c-1.69-2.103-4.149-3.455-6.835-3.728l-60.402-6.469c-5.182-0.572-9.707,2.741-10.955,7.643
		c-0.282,1.089-0.742,2.027-1.07,3.061H621.271c32.332-25.149,53.275-64.346,53.275-108.413c0-15.518-2.703-30.37-7.463-44.302
		c0.976-1.549,1.689-3.295,1.689-5.276c0-4.807-3.398-8.627-7.857-9.707c-0.657-1.352-1.268-2.741-1.981-4.093
		c1.429-4.271,0.085-9.069-3.849-11.65c-1.211-0.808-2.544-1.314-3.915-1.53c-24.689-36.642-66.552-60.797-113.971-60.797
		c-15.405,0-30.146,2.657-43.982,7.341V240.24h587.689v25.009c-11.754-3.474-24.174-5.417-37.036-5.417
		c-57.285,0-103.286,33.918-119.979,83.6C910.703,324.862,889.13,312.63,864.674,312.63z M917.012,385.218c0,0.085,0,0.142,0,0.216
		v0.057c-0.103,28.793-23.524,52.196-52.338,52.196c-28.877,0-52.375-23.497-52.375-52.375c0-28.877,23.498-52.356,52.375-52.356
		C893.514,332.955,916.975,356.378,917.012,385.218z M1213.166,672.52c-0.02,0.065,0.02,0.122,0,0.188H922.889
		c-4.431,0-8.637,0.771-12.711,1.878c-0.714-12.814,1.689-23.198,7.407-30.736c3.802-5.022,8.571-8.121,12.861-10.102
		c13.923,13.696,38.51,21.301,72.7,22.409c1.803,0.253,44.696,6.506,87.899,6.506c32.258,0,56.311-3.567,72.532-11.115
		c0.938-0.582,14.636-9.304,22.371-33.544c4.562,1.014,14.289,4.121,20.954,12.946
		C1214.189,640.506,1216.283,654.494,1213.166,672.52z"/>
	<path fill="#FFFFFF" d="M688.339,296.501c4.666,3.117,10.976,1.784,14.073-2.882l2.439-3.67l2.301,3.746
		c1.925,3.117,5.258,4.826,8.655,4.826c1.821,0,3.671-0.498,5.332-1.512c4.771-2.957,6.253-9.209,3.323-13.988l-10.684-17.311
		c-1.821-2.958-5.022-4.76-8.496-4.826c-3.924-0.019-6.75,1.643-8.638,4.563l-11.181,16.974
		C682.368,287.104,683.654,293.413,688.339,296.501z"/>
	<path fill="#FFFFFF" d="M684.715,302.012c-4.703-3.136-10.993-1.803-14.072,2.882l-14.833,22.475
		c-3.098,4.685-1.803,10.993,2.883,14.072c1.728,1.155,3.671,1.69,5.596,1.69c3.295,0,6.534-1.605,8.478-4.563l14.833-22.476
		C690.686,311.4,689.4,305.091,684.715,302.012z"/>
	<path fill="#FFFFFF" d="M717.761,362.227h-29.571c-5.613,0-10.157,4.544-10.157,10.168c0,5.623,4.544,10.167,10.157,10.167h29.571
		c5.614,0,10.168-4.544,10.168-10.167C727.929,366.771,723.375,362.227,717.761,362.227z"/>
	<path fill="#FFFFFF" d="M765.631,349.75c-2.957-4.807-9.21-6.215-13.998-3.313c-4.76,2.957-6.252,9.209-3.312,13.988l1.117,1.802
		h-2.104c-5.623,0-10.167,4.544-10.167,10.168c0,5.623,4.544,10.167,10.167,10.167h20.325c3.699,0,7.088-1.981,8.872-5.22
		c1.802-3.211,1.708-7.145-0.216-10.28L765.631,349.75z"/>
	<path fill="#FFFFFF" d="M748.601,341.508c4.778-2.957,6.253-9.21,3.314-13.998l-13.735-22.25
		c-2.957-4.797-9.229-6.196-13.997-3.314c-4.788,2.958-6.253,9.21-3.313,13.998l13.734,22.249c1.925,3.117,5.268,4.825,8.655,4.825
		C745.09,343.019,746.939,342.521,748.601,341.508z"/>
</g>
</svg>
