<?xml version="1.0" encoding="utf-8"?>
<!-- Generator: Adobe Illustrator 16.0.0, SVG Export Plug-In . SVG Version: 6.00 Build 0)  -->
<!DOCTYPE svg PUBLIC "-//W3C//DTD SVG 1.1//EN" "http://www.w3.org/Graphics/SVG/1.1/DTD/svg11.dtd">
<svg version="1.1" id="Layer_1" xmlns="http://www.w3.org/2000/svg" xmlns:xlink="http://www.w3.org/1999/xlink" x="0px" y="0px"
	 width="41.212px" height="30.492px" viewBox="0 0 41.212 30.492" enable-background="new 0 0 41.212 30.492" xml:space="preserve">
<line fill="none" stroke="#808080" stroke-width="2" stroke-linecap="round" stroke-miterlimit="10" x1="31.695" y1="29.492" x2="31.695" y2="17.492"/>
<line fill="none" stroke="#DD637A" stroke-width="2" stroke-linecap="round" stroke-miterlimit="10" x1="36.212" y1="12.667" x2="39.629" y2="19.166"/>
<path fill="#DD637A" d="M36.129,9c-2.481,0-4.5-2.019-4.5-4.5s2.019-4.5,4.5-4.5s4.5,2.019,4.5,4.5S38.611,9,36.129,9z"/>
<circle fill="#DD637A" cx="36.129" cy="4.5" r="3.5"/>
<line fill="none" stroke="#DD637A" stroke-width="2" stroke-linecap="round" stroke-miterlimit="10" x1="35.695" y1="8.492" x2="35.695" y2="20.492"/>
<line fill="none" stroke="#DD637A" stroke-width="2" stroke-linecap="round" stroke-miterlimit="10" x1="36.212" y1="20.666" x2="40.212" y2="29.166"/>
<line fill="none" stroke="#DD637A" stroke-width="2" stroke-linecap="round" stroke-miterlimit="10" x1="35.962" y1="20.666" x2="34.462" y2="29.166"/>
<line fill="none" stroke="#808080" stroke-width="2" stroke-linecap="round" stroke-miterlimit="10" x1="9.695" y1="29.492" x2="9.695" y2="17.492"/>
<line fill="none" stroke="#808080" stroke-width="2" stroke-linecap="round" stroke-miterlimit="10" x1="9.695" y1="17.492" x2="31.695" y2="17.492"/>
<line fill="none" stroke="#DD637A" stroke-width="2" stroke-linecap="round" stroke-miterlimit="10" x1="36.212" y1="12.667" x2="29" y2="16.485"/>
<path fill="#82B974" d="M5.083,9c-2.481,0-4.5-2.019-4.5-4.5S2.602,0,5.083,0s4.5,2.019,4.5,4.5S7.565,9,5.083,9z"/>
<circle fill="#82B974" cx="5.083" cy="4.5" r="3.5"/>
<line fill="none" stroke="#82B974" stroke-width="2" stroke-linecap="round" stroke-miterlimit="10" x1="4.695" y1="8.492" x2="4.695" y2="20.492"/>
<line fill="none" stroke="#82B974" stroke-width="2" stroke-linecap="round" stroke-miterlimit="10" x1="5" y1="20.666" x2="1" y2="29.166"/>
<line fill="none" stroke="#82B974" stroke-width="2" stroke-linecap="round" stroke-miterlimit="10" x1="5.25" y1="20.666" x2="6.75" y2="29.166"/>
<line fill="none" stroke="#82B974" stroke-width="2" stroke-linecap="round" stroke-miterlimit="10" x1="5.581" y1="13.32" x2="11.137" y2="9.286"/>
<line fill="none" stroke="#82B974" stroke-width="2" stroke-linecap="round" stroke-miterlimit="10" x1="5.581" y1="13.32" x2="9.963" y2="17.666"/>
<rect x="14.195" y="3.992" fill="none" stroke="#808080" stroke-linecap="round" stroke-miterlimit="10" width="13" height="9"/>
<rect x="16.713" y="5.667" fill="#FFFF00" width="2" height="2"/>
<rect x="20.712" y="5.667" fill="#FFFF00" width="2" height="2"/>
<rect x="24.712" y="5.667" fill="#FFFF00" width="2" height="2"/>
</svg>
