<?xml version="1.0" encoding="utf-8"?>
<!-- Generator: Adobe Illustrator 16.0.0, SVG Export Plug-In . SVG Version: 6.00 Build 0)  -->
<!DOCTYPE svg PUBLIC "-//W3C//DTD SVG 1.1//EN" "http://www.w3.org/Graphics/SVG/1.1/DTD/svg11.dtd">
<svg version="1.1" id="Layer_1" xmlns="http://www.w3.org/2000/svg" xmlns:xlink="http://www.w3.org/1999/xlink" x="0px" y="0px"
	 width="69.695px" height="31.492px" viewBox="0 0 69.695 31.492" enable-background="new 0 0 69.695 31.492" xml:space="preserve">
<line fill="none" stroke="#808080" stroke-width="2" stroke-linecap="round" stroke-miterlimit="10" x1="10.695" y1="29.492" x2="10.695" y2="16.492"/>
<line fill="none" stroke="#808080" stroke-width="2" stroke-linecap="round" stroke-miterlimit="10" x1="68.695" y1="16.492" x2="68.695" y2="30.492"/>
<path fill="#22B573" d="M5.084,9c-2.481,0-4.5-2.019-4.5-4.5S2.603,0,5.084,0s4.5,2.019,4.5,4.5S7.565,9,5.084,9z"/>
<circle fill="#22B573" cx="5.084" cy="4.5" r="3.5"/>
<circle fill="#22B573" cx="5.084" cy="4.5" r="2.5"/>
<line fill="none" stroke="#22B573" stroke-width="2" stroke-linecap="round" stroke-miterlimit="10" x1="4.695" y1="8.492" x2="4.695" y2="20.492"/>
<line fill="none" stroke="#22B573" stroke-width="2" stroke-linecap="round" stroke-miterlimit="10" x1="5" y1="20.666" x2="1" y2="29.166"/>
<line fill="none" stroke="#22B573" stroke-width="2" stroke-linecap="round" stroke-miterlimit="10" x1="5.25" y1="20.666" x2="6.75" y2="29.166"/>
<line fill="none" stroke="#22B573" stroke-width="2" stroke-linecap="round" stroke-miterlimit="10" x1="4.963" y1="12.667" x2="10.963" y2="14.667"/>
<path fill="#FBB03B" d="M22.797,13.458c-2.206,0-4-1.794-4-4s1.794-4,4-4s4,1.794,4,4S25.003,13.458,22.797,13.458z"/>
<circle fill="#FBB03B" cx="22.797" cy="9.458" r="3"/>
<rect x="19.195" y="11.992" fill="#FFFFFF" stroke="#B3B3B3" stroke-linecap="round" stroke-miterlimit="10" width="8" height="4"/>
<path fill="#00A99D" d="M37.796,13.458c-2.206,0-4-1.794-4-4s1.794-4,4-4c2.207,0,4,1.794,4,4S40.003,13.458,37.796,13.458z"/>
<circle fill="#00A99D" cx="37.797" cy="9.458" r="3"/>
<line fill="none" stroke="#00A99D" stroke-width="2" stroke-linecap="round" stroke-miterlimit="10" x1="37.695" y1="12.492" x2="37.695" y2="15.492"/>
<line fill="none" stroke="#999999" stroke-width="2" stroke-linecap="round" stroke-miterlimit="10" x1="18.695" y1="23.492" x2="27.695" y2="23.492"/>
<line fill="none" stroke="#999999" stroke-width="2" stroke-linecap="round" stroke-miterlimit="10" x1="27.695" y1="23.492" x2="27.695" y2="29.492"/>
<line fill="none" stroke="#999999" stroke-width="2" stroke-linecap="round" stroke-miterlimit="10" x1="18.695" y1="23.492" x2="18.695" y2="29.492"/>
<line fill="none" stroke="#FBB03B" stroke-width="2" stroke-linecap="round" stroke-miterlimit="10" x1="22.695" y1="17.492" x2="22.695" y2="21.492"/>
<line fill="none" stroke="#FBB03B" stroke-width="2" stroke-linecap="round" stroke-miterlimit="10" x1="19.695" y1="21.492" x2="26.695" y2="21.492"/>
<line fill="none" stroke="#FBB03B" stroke-width="2" stroke-linecap="round" stroke-miterlimit="10" x1="19.695" y1="21.492" x2="19.695" y2="29.492"/>
<line fill="none" stroke="#FBB03B" stroke-width="2" stroke-linecap="round" stroke-miterlimit="10" x1="26.695" y1="21.492" x2="26.695" y2="29.492"/>
<line fill="none" stroke="#999999" stroke-width="2" stroke-linecap="round" stroke-miterlimit="10" x1="42.695" y1="23.492" x2="42.695" y2="29.492"/>
<line fill="none" stroke="#999999" stroke-width="2" stroke-linecap="round" stroke-miterlimit="10" x1="33.695" y1="23.492" x2="33.695" y2="29.492"/>
<line fill="none" stroke="#999999" stroke-width="2" stroke-linecap="round" stroke-miterlimit="10" x1="33.695" y1="23.492" x2="42.695" y2="23.492"/>
<line fill="none" stroke="#00A99D" stroke-width="2" stroke-linecap="round" stroke-miterlimit="10" x1="37.695" y1="17.492" x2="37.695" y2="21.492"/>
<line fill="none" stroke="#00A99D" stroke-width="2" stroke-linecap="round" stroke-miterlimit="10" x1="34.695" y1="21.492" x2="41.695" y2="21.492"/>
<line fill="none" stroke="#00A99D" stroke-width="2" stroke-linecap="round" stroke-miterlimit="10" x1="34.695" y1="21.492" x2="34.695" y2="29.492"/>
<line fill="none" stroke="#00A99D" stroke-width="2" stroke-linecap="round" stroke-miterlimit="10" x1="41.695" y1="21.492" x2="41.695" y2="29.492"/>
<line fill="none" stroke="#00A99D" stroke-width="2" stroke-linecap="round" stroke-miterlimit="10" x1="37.796" y1="16.916" x2="33.463" y2="12.667"/>
<line fill="none" stroke="#00A99D" stroke-width="2" stroke-linecap="round" stroke-miterlimit="10" x1="37.962" y1="15.667" x2="41.962" y2="14.792"/>
<line fill="none" stroke="#999999" stroke-width="2" stroke-linecap="round" stroke-miterlimit="10" x1="58.695" y1="23.492" x2="58.695" y2="29.492"/>
<line fill="none" stroke="#999999" stroke-width="2" stroke-linecap="round" stroke-miterlimit="10" x1="49.695" y1="23.492" x2="49.695" y2="29.492"/>
<line fill="none" stroke="#999999" stroke-width="2" stroke-linecap="round" stroke-miterlimit="10" x1="49.695" y1="23.492" x2="58.695" y2="23.492"/>
<line fill="none" stroke="#0071BC" stroke-width="2" stroke-linecap="round" stroke-miterlimit="10" x1="53.695" y1="17.492" x2="53.695" y2="21.492"/>
<line fill="none" stroke="#0071BC" stroke-width="2" stroke-linecap="round" stroke-miterlimit="10" x1="50.695" y1="21.492" x2="57.695" y2="21.492"/>
<line fill="none" stroke="#0071BC" stroke-width="2" stroke-linecap="round" stroke-miterlimit="10" x1="50.695" y1="21.492" x2="50.695" y2="29.492"/>
<line fill="none" stroke="#0071BC" stroke-width="2" stroke-linecap="round" stroke-miterlimit="10" x1="57.695" y1="21.492" x2="57.695" y2="29.492"/>
<path fill="#0071BC" d="M53.796,13.458c-2.205,0-4-1.794-4-4s1.795-4,4-4c2.207,0,4,1.794,4,4S56.003,13.458,53.796,13.458z"/>
<circle fill="#0071BC" cx="53.796" cy="9.458" r="3"/>
<line fill="none" stroke="#0071BC" stroke-width="2" stroke-linecap="round" stroke-miterlimit="10" x1="53.695" y1="12.492" x2="53.695" y2="15.492"/>
<line fill="none" stroke="#0071BC" stroke-width="2" stroke-linecap="round" stroke-miterlimit="10" x1="53.962" y1="15.667" x2="57.962" y2="14.792"/>
<line fill="none" stroke="#808080" stroke-width="2" stroke-linecap="round" stroke-miterlimit="10" x1="10.695" y1="16.492" x2="68.695" y2="16.492"/>
<rect x="61.695" y="13.492" fill="none" stroke="#4D4D4D" stroke-width="2" stroke-linecap="round" stroke-miterlimit="10" width="6" height="2"/>
<circle fill="#0071BC" stroke="#0071BC" stroke-miterlimit="10" cx="52.462" cy="15.167" r="1.5"/>
</svg>
