<?xml version="1.0" encoding="utf-8"?>
<!-- Generator: Adobe Illustrator 16.0.0, SVG Export Plug-In . SVG Version: 6.00 Build 0)  -->
<!DOCTYPE svg PUBLIC "-//W3C//DTD SVG 1.1//EN" "http://www.w3.org/Graphics/SVG/1.1/DTD/svg11.dtd">
<svg version="1.1" id="Layer_1" xmlns="http://www.w3.org/2000/svg" xmlns:xlink="http://www.w3.org/1999/xlink" x="0px" y="0px"
	 width="91.915px" height="41px" viewBox="0 0 91.915 41" enable-background="new 0 0 91.915 41" xml:space="preserve">
<path fill="#82B974" d="M3.843,24.386C1.724,24.386,0,22.662,0,20.543c0-2.12,1.724-3.844,3.843-3.844s3.843,1.724,3.843,3.844
	C7.687,22.662,5.962,24.386,3.843,24.386z"/>
<circle fill="#82B974" cx="3.843" cy="20.543" r="2.843"/>
<line fill="#DD637A" stroke="#82B974" stroke-width="2" stroke-linecap="round" stroke-miterlimit="10" x1="3.397" y1="23" x2="3.397" y2="31"/>
<line fill="none" stroke="#82B974" stroke-width="2" stroke-linecap="round" stroke-miterlimit="10" x1="3.397" y1="31" x2="8.397" y2="31"/>
<line fill="#DD637A" stroke="#82B974" stroke-width="2" stroke-linecap="round" stroke-miterlimit="10" x1="9.397" y1="32" x2="9.397" y2="39"/>
<line fill="none" stroke="#808080" stroke-width="2" stroke-linecap="round" stroke-miterlimit="10" x1="1.397" y1="25" x2="1.397" y2="40"/>
<line fill="none" stroke="#808080" stroke-width="2" stroke-linecap="round" stroke-miterlimit="10" x1="2.397" y1="33" x2="6.397" y2="33"/>
<line fill="none" stroke="#808080" stroke-width="2" stroke-linecap="round" stroke-miterlimit="10" x1="7.397" y1="33" x2="7.397" y2="40"/>
<line fill="none" stroke="#62BECE" stroke-width="2" stroke-linecap="round" stroke-miterlimit="10" x1="31.397" y1="27" x2="31.397" y2="29"/>
<line fill="none" stroke="#DD637A" stroke-width="2" stroke-linecap="round" stroke-miterlimit="10" x1="86.915" y1="22.174" x2="90.332" y2="28.674"/>
<line fill="none" stroke="#DD637A" stroke-width="2" stroke-linecap="round" stroke-miterlimit="10" x1="86.915" y1="22.174" x2="77.915" y2="20.674"/>
<path fill="#DD637A" d="M86.832,18.508c-2.481,0-4.5-2.019-4.5-4.5s2.019-4.5,4.5-4.5s4.5,2.019,4.5,4.5
	S89.313,18.508,86.832,18.508z"/>
<circle fill="#DD637A" cx="86.832" cy="14.008" r="3.5"/>
<line fill="none" stroke="#DD637A" stroke-width="2" stroke-linecap="round" stroke-miterlimit="10" x1="86.397" y1="18" x2="86.397" y2="30"/>
<line fill="none" stroke="#DD637A" stroke-width="2" stroke-linecap="round" stroke-miterlimit="10" x1="86.665" y1="30.174" x2="82.165" y2="38.674"/>
<line fill="none" stroke="#DD637A" stroke-width="2" stroke-linecap="round" stroke-miterlimit="10" x1="86.915" y1="30.174" x2="90.915" y2="38.674"/>
<rect x="30.397" y="1" fill="#FFFFFF" stroke="#808080" stroke-width="2" stroke-miterlimit="10" width="36" height="17"/>
<line fill="none" stroke="#808080" stroke-width="2" stroke-linecap="round" stroke-miterlimit="10" x1="28.397" y1="35" x2="28.397" y2="39"/>
<line fill="none" stroke="#808080" stroke-width="2" stroke-linecap="round" stroke-miterlimit="10" x1="34.397" y1="35" x2="34.397" y2="39"/>
<rect x="34.665" y="4.174" fill="none" width="29" height="18"/>
<text transform="matrix(1 0 0 1 44.3281 6.3223)"><tspan x="0" y="0" font-family="'ArialMT'" font-size="3" text-decoration=" underline">Lesson</tspan><tspan x="-0.664" y="3.6" font-family="'ArialMT'" font-size="3">Symetry</tspan></text>
<path fill="#62BECE" d="M31.831,27.674c-1.93,0-3.5-1.57-3.5-3.5s1.57-3.5,3.5-3.5s3.5,1.57,3.5,3.5S33.761,27.674,31.831,27.674z"
	/>
<circle fill="#62BECE" cx="31.831" cy="24.174" r="2.5"/>
<line fill="none" stroke="#808080" stroke-width="2" stroke-linecap="round" stroke-miterlimit="10" x1="28.397" y1="35" x2="34.397" y2="35"/>
<rect x="28.397" y="29" fill="none" stroke="#808080" stroke-width="2" stroke-linecap="round" stroke-linejoin="round" stroke-miterlimit="10" width="6" height="6"/>
<line fill="none" stroke="#62BECE" stroke-width="2" stroke-linecap="round" stroke-miterlimit="10" x1="42.397" y1="27" x2="42.397" y2="29"/>
<line fill="none" stroke="#808080" stroke-width="2" stroke-linecap="round" stroke-miterlimit="10" x1="39.397" y1="35" x2="39.397" y2="39"/>
<line fill="none" stroke="#808080" stroke-width="2" stroke-linecap="round" stroke-miterlimit="10" x1="45.397" y1="35" x2="45.397" y2="39"/>
<path fill="#62BECE" d="M42.831,27.674c-1.93,0-3.5-1.57-3.5-3.5s1.57-3.5,3.5-3.5s3.5,1.57,3.5,3.5S44.761,27.674,42.831,27.674z"
	/>
<circle fill="#62BECE" cx="42.831" cy="24.174" r="2.5"/>
<line fill="none" stroke="#808080" stroke-width="2" stroke-linecap="round" stroke-miterlimit="10" x1="39.397" y1="35" x2="45.397" y2="35"/>
<rect x="39.397" y="29" fill="none" stroke="#808080" stroke-width="2" stroke-linecap="round" stroke-linejoin="round" stroke-miterlimit="10" width="6" height="6"/>
<line fill="none" stroke="#62BECE" stroke-width="2" stroke-linecap="round" stroke-miterlimit="10" x1="52.397" y1="27" x2="52.397" y2="29"/>
<line fill="none" stroke="#808080" stroke-width="2" stroke-linecap="round" stroke-miterlimit="10" x1="49.397" y1="35" x2="49.397" y2="39"/>
<line fill="none" stroke="#808080" stroke-width="2" stroke-linecap="round" stroke-miterlimit="10" x1="55.397" y1="35" x2="55.397" y2="39"/>
<path fill="#62BECE" d="M52.831,27.674c-1.93,0-3.5-1.57-3.5-3.5s1.57-3.5,3.5-3.5s3.5,1.57,3.5,3.5S54.76,27.674,52.831,27.674z"/>
<circle fill="#62BECE" cx="52.831" cy="24.174" r="2.5"/>
<line fill="none" stroke="#808080" stroke-width="2" stroke-linecap="round" stroke-miterlimit="10" x1="49.397" y1="35" x2="55.397" y2="35"/>
<rect x="49.397" y="29" fill="none" stroke="#808080" stroke-width="2" stroke-linecap="round" stroke-linejoin="round" stroke-miterlimit="10" width="6" height="6"/>
<line fill="none" stroke="#62BECE" stroke-width="2" stroke-linecap="round" stroke-miterlimit="10" x1="62.397" y1="27" x2="62.397" y2="29"/>
<line fill="none" stroke="#808080" stroke-width="2" stroke-linecap="round" stroke-miterlimit="10" x1="59.397" y1="35" x2="59.397" y2="39"/>
<line fill="none" stroke="#808080" stroke-width="2" stroke-linecap="round" stroke-miterlimit="10" x1="65.397" y1="35" x2="65.397" y2="39"/>
<path fill="#62BECE" d="M62.831,27.674c-1.93,0-3.5-1.57-3.5-3.5s1.57-3.5,3.5-3.5s3.5,1.57,3.5,3.5S64.76,27.674,62.831,27.674z"/>
<circle fill="#62BECE" cx="62.831" cy="24.174" r="2.5"/>
<line fill="none" stroke="#808080" stroke-width="2" stroke-linecap="round" stroke-miterlimit="10" x1="59.397" y1="35" x2="65.397" y2="35"/>
<rect x="59.397" y="29" fill="none" stroke="#808080" stroke-width="2" stroke-linecap="round" stroke-linejoin="round" stroke-miterlimit="10" width="6" height="6"/>
<line fill="none" stroke="#82B974" stroke-width="2" stroke-linecap="round" stroke-miterlimit="10" x1="4.665" y1="26.674" x2="10.109" y2="30.174"/>
</svg>
