<?xml version="1.0" encoding="utf-8"?>
<!-- Generator: Adobe Illustrator 16.0.0, SVG Export Plug-In . SVG Version: 6.00 Build 0)  -->
<!DOCTYPE svg PUBLIC "-//W3C//DTD SVG 1.1//EN" "http://www.w3.org/Graphics/SVG/1.1/DTD/svg11.dtd">
<svg version="1.1" id="Layer_1" xmlns="http://www.w3.org/2000/svg" xmlns:xlink="http://www.w3.org/1999/xlink" x="0px" y="0px"
	 width="42.333px" height="29.492px" viewBox="0 0 42.333 29.492" enable-background="new 0 0 42.333 29.492" xml:space="preserve">
<path fill="#22B573" d="M4.5,9C2.019,9,0,6.981,0,4.5S2.019,0,4.5,0S9,2.019,9,4.5S6.981,9,4.5,9z"/>
<circle fill="#22B573" cx="4.5" cy="4.5" r="3.5"/>
<line fill="#0071BC" stroke="#22B573" stroke-width="2" stroke-linecap="round" stroke-miterlimit="10" x1="4.398" y1="7.492" x2="4.398" y2="17.492"/>
<line fill="none" stroke="#22B573" stroke-width="2" stroke-linecap="round" stroke-miterlimit="10" x1="4.398" y1="17.492" x2="10.398" y2="17.492"/>
<line fill="#0071BC" stroke="#22B573" stroke-width="2" stroke-linecap="round" stroke-miterlimit="10" x1="10.398" y1="18.492" x2="10.398" y2="28.492"/>
<line fill="none" stroke="#808080" stroke-width="2" stroke-linecap="round" stroke-miterlimit="10" x1="2.398" y1="10.492" x2="2.398" y2="28.492"/>
<line fill="none" stroke="#808080" stroke-width="2" stroke-linecap="round" stroke-miterlimit="10" x1="2.398" y1="19.492" x2="7.398" y2="19.492"/>
<line fill="none" stroke="#808080" stroke-width="2" stroke-linecap="round" stroke-miterlimit="10" x1="8.398" y1="19.492" x2="8.398" y2="28.492"/>
<line fill="#0071BC" stroke="#22B573" stroke-width="2" stroke-linecap="round" stroke-miterlimit="10" x1="4.398" y1="12.492" x2="11.398" y2="12.492"/>
<line fill="#0071BC" stroke="#22B573" stroke-width="2" stroke-linecap="round" stroke-miterlimit="10" x1="11.667" y1="12.667" x2="15.333" y2="10.667"/>
<line fill="none" stroke="#808080" stroke-width="2" stroke-linecap="round" stroke-miterlimit="10" x1="15.398" y1="28.492" x2="15.398" y2="16.492"/>
<line fill="none" stroke="#808080" stroke-width="3" stroke-linecap="round" stroke-miterlimit="10" x1="15.398" y1="16.992" x2="27.398" y2="16.992"/>
<line fill="none" stroke="#808080" stroke-width="2" stroke-linecap="round" stroke-miterlimit="10" x1="27.398" y1="16.492" x2="27.398" y2="28.492"/>
<path fill="#0071BC" d="M37.833,9c-2.481,0-4.5-2.019-4.5-4.5s2.019-4.5,4.5-4.5s4.5,2.019,4.5,4.5S40.314,9,37.833,9z"/>
<circle fill="#0071BC" cx="37.833" cy="4.5" r="3.5"/>
<line fill="#0071BC" stroke="#0071BC" stroke-width="2" stroke-linecap="round" stroke-miterlimit="10" x1="37.398" y1="7.492" x2="37.398" y2="17.492"/>
<line fill="none" stroke="#0071BC" stroke-width="2" stroke-linecap="round" stroke-miterlimit="10" x1="37.398" y1="17.492" x2="31.398" y2="17.492"/>
<line fill="#0071BC" stroke="#0071BC" stroke-width="2" stroke-linecap="round" stroke-miterlimit="10" x1="31.398" y1="18.492" x2="31.398" y2="28.492"/>
<line fill="none" stroke="#808080" stroke-width="2" stroke-linecap="round" stroke-miterlimit="10" x1="39.398" y1="10.492" x2="39.398" y2="28.492"/>
<line fill="none" stroke="#808080" stroke-width="2" stroke-linecap="round" stroke-miterlimit="10" x1="39.398" y1="19.492" x2="34.398" y2="19.492"/>
<line fill="none" stroke="#808080" stroke-width="2" stroke-linecap="round" stroke-miterlimit="10" x1="33.398" y1="19.492" x2="33.398" y2="28.492"/>
<line fill="none" stroke="#0071BC" stroke-width="2" stroke-linecap="round" stroke-miterlimit="10" x1="37.166" y1="12.667" x2="31.666" y2="17.666"/>
</svg>
