<svg xmlns="http://www.w3.org/2000/svg" xmlns:xlink="http://www.w3.org/1999/xlink" version="1.1" x="0px" y="0px" viewBox="0 0 100 100" enable-background="new 0 0 100 100" xml:space="preserve"><path fill="#ffffff" d="M50,33.1c3.4,0,6.1-2.7,6.1-6.1s-2.7-6.1-6.1-6.1s-6.1,2.7-6.1,6.1S46.6,33.1,50,33.1z M50,24.7c1.3,0,2.3,1,2.3,2.3  s-1,2.3-2.3,2.3c-1.3,0-2.3-1-2.3-2.3S48.8,24.7,50,24.7z M58.2,60.3c0.2,0,0.4-0.1,0.6-0.2c0.3-0.2,1.7-1.2,3.1-4.3  c3,2.7,4.3,7,4.3,7c0.2,0.8,1,1.4,1.8,1.4c0.1,0,0.1,0,0.2,0c0.9-0.1,1.6-0.8,1.7-1.8c1-13.7-3.7-21.3-5.3-23.4c0-0.3,0-0.7,0-1  c0-18-12.8-30.4-13.3-30.9c-0.7-0.7-1.9-0.7-2.7,0C48.1,7.6,35.4,20,35.4,38c0,0.3,0,0.7,0,1c-1.6,2.1-6.3,9.7-5.3,23.4  c0.1,0.9,0.8,1.7,1.7,1.8c0.1,0,0.1,0,0.2,0c0.8,0,1.6-0.6,1.8-1.4c0-0.1,1.3-4.3,4.3-7c1.4,3.1,2.8,4.1,3.1,4.3  c0.2,0.1,0.4,0.2,0.6,0.2c0.1,0,1.6,0.3,3.7,0.6c0.5,3.3,1.4,6.4,2.9,8.5c0.4,0.5,1,0.8,1.6,0.8s1.2-0.3,1.5-0.8  c1.6-2.1,2.4-5.1,2.9-8.5C56.6,60.6,58.1,60.3,58.2,60.3z M66,54.6c-0.8-1-1.8-1.9-2.9-2.7c0.4-1.6,0.8-3.4,1-5.5  C65,48.4,65.7,51.2,66,54.6z M34,54.6c0.3-3.4,1.1-6.1,1.9-8.2c0.3,2.1,0.6,4,1,5.5C35.7,52.7,34.8,53.6,34,54.6z M43.2,56.6  c-0.8-0.9-3.9-5.1-3.9-18.7c0-13,7.6-23.1,10.8-26.7c3.1,3.6,10.8,13.6,10.8,26.7c0,13.7-3.2,17.9-3.9,18.6c-0.4,0.1-1.1,0.2-2,0.3  c0.4-5.7-0.1-11-0.2-12c0-0.5-0.3-0.9-0.6-1.2c-0.2-0.1-1.7-1.4-4-1.4c0,0,0,0,0,0c-2.3,0-3.8,1.3-4,1.4c-0.4,0.3-0.6,0.8-0.6,1.2  c-0.1,1-0.6,6.4-0.2,12C44.3,56.8,43.6,56.7,43.2,56.6z M50,63.6c-1.5-5.2-1.2-13.3-0.9-17.4c0.2-0.1,0.5-0.2,0.9-0.2c0,0,0,0,0,0  c0.4,0,0.7,0.1,0.9,0.2C51.2,50.4,51.4,58.4,50,63.6z M46,69.9c0.8,0.8,0.8,2,0,2.7s-2,0.8-2.7,0c-0.9-0.9-2.1-1.4-3.3-1.4  c-2.6,0-4.7,2.1-4.7,4.7c0,1.6,0.8,3.1,2.2,4c0,0,0,0,0,0c0.1,0,0.1,0.1,0.2,0.1c0,0,0.1,0.1,0.1,0.1c0,0,0.1,0.1,0.1,0.2  c0,0,0.1,0.1,0.1,0.1c0,0.1,0.1,0.1,0.1,0.2c0,0,0.1,0.1,0.1,0.1c0,0.1,0,0.1,0.1,0.2c0,0.1,0,0.1,0.1,0.2c0,0.1,0,0.1,0,0.2  c0,0.1,0,0.1,0,0.2c0,0,0,0,0,0c0,0,0,0.1,0,0.1c0,0.1,0,0.1,0,0.2c0,0.1,0,0.1,0,0.2c0,0.1,0,0.1-0.1,0.2c0,0.1-0.1,0.1-0.1,0.2  c0,0,0,0.1-0.1,0.1c0,0,0,0,0,0c-0.1,0.1-0.2,0.2-0.3,0.3c0,0-0.1,0.1-0.1,0.1c-0.1,0.1-0.2,0.1-0.3,0.2c0,0-0.1,0-0.1,0.1  c-0.1,0-0.2,0.1-0.3,0.1c0,0-0.1,0-0.1,0c-0.1,0-0.3,0.1-0.4,0.1c-4.4,0-8.1,3.6-8.1,8.1c0,1.1-0.9,1.9-1.9,1.9s-1.9-0.9-1.9-1.9  c0-5.2,3.4-9.6,8.1-11.2c-0.8-1.3-1.2-2.8-1.2-4.3c0-4.1,2.9-7.5,6.7-8.3c0.3-1.9,1.2-3.8,2.5-5.3c0.7-0.8,1.9-0.8,2.7-0.1  c0.8,0.7,0.8,1.9,0.1,2.7c-0.7,0.8-1.2,1.8-1.5,2.8C43.6,68.1,44.9,68.8,46,69.9z M75.4,91.5c0,1.1-0.9,1.9-1.9,1.9  c-1.1,0-1.9-0.9-1.9-1.9c0-4.4-3.6-8.1-8.1-8.1c0,0,0,0-0.1,0c-1.1,0.5-2.2,0.8-3.5,0.8c-1.1,0-1.9-0.9-1.9-1.9  c0-1.1,0.9-1.9,1.9-1.9c2.5,0,4.5-2,4.5-4.5s-2-4.5-4.5-4.5c-0.6,0-1.3,0.1-1.9,0.4c-1,0.4-2.1,0-2.5-1c-0.4-1,0-2.1,1-2.5  c0.4-0.2,0.9-0.3,1.3-0.5c-0.3-1-0.7-2-1.5-2.8c-0.7-0.8-0.7-2,0.1-2.7c0.8-0.7,2-0.7,2.7,0.1c1.3,1.5,2.2,3.3,2.5,5.3  c3.7,0.8,6.6,4.2,6.6,8.2c0,1.6-0.5,3.1-1.2,4.4C71.9,81.7,75.4,86.2,75.4,91.5z"></path></svg>