<?xml version="1.0" encoding="utf-8"?>
<!-- Generator: Adobe Illustrator 16.0.0, SVG Export Plug-In . SVG Version: 6.00 Build 0)  -->
<!DOCTYPE svg PUBLIC "-//W3C//DTD SVG 1.1//EN" "http://www.w3.org/Graphics/SVG/1.1/DTD/svg11.dtd">
<svg version="1.1" id="Layer_1" xmlns="http://www.w3.org/2000/svg" xmlns:xlink="http://www.w3.org/1999/xlink" x="0px" y="0px"
	 width="310.896px" height="531.369px" viewBox="150.552 130.239 310.896 531.369"
	 enable-background="new 150.552 130.239 310.896 531.369" xml:space="preserve">
<path fill="#31C8D6" d="M306,292.572c20.808,0,37.332-16.524,37.332-37.332c0-20.808-16.524-37.332-37.332-37.332
	c-20.808,0-37.332,16.524-37.332,37.332C268.668,276.048,285.192,292.572,306,292.572z M306,241.164
	c7.956,0,14.076,6.12,14.076,14.076c0,7.956-6.12,14.076-14.076,14.076s-14.076-6.12-14.076-14.076
	C291.924,247.284,298.656,241.164,306,241.164z M356.184,459.036c1.225,0,2.448-0.612,3.673-1.225
	c1.836-1.224,10.403-7.344,18.972-26.315c18.359,16.523,26.315,42.84,26.315,42.84c1.225,4.896,6.12,8.568,11.017,8.568
	c0.611,0,0.611,0,1.224,0c5.508-0.612,9.792-4.896,10.404-11.017c6.12-83.844-22.645-130.355-32.437-143.208c0-1.836,0-4.284,0-6.12
	c0-110.16-78.336-186.048-81.396-189.108c-4.284-4.284-11.628-4.284-16.524,0c-3.06,3.06-80.784,78.948-80.784,189.108
	c0,1.836,0,4.284,0,6.12c-9.792,12.852-38.556,59.364-32.436,143.208c0.612,5.509,4.896,10.404,10.404,11.017
	c0.612,0,0.612,0,1.224,0c4.896,0,9.792-3.672,11.016-8.568c0-0.612,7.956-26.316,26.316-42.84
	c8.568,18.972,17.136,25.092,18.972,26.316c1.224,0.611,2.448,1.224,3.672,1.224c0.612,0,9.792,1.836,22.644,3.672
	c3.06,20.196,8.568,39.168,17.748,52.02c2.448,3.061,6.12,4.896,9.792,4.896s7.344-1.836,9.18-4.896
	c9.792-12.852,14.688-31.212,17.748-52.02C346.392,460.872,355.572,459.036,356.184,459.036z M403.92,424.152
	c-4.896-6.12-11.016-11.628-17.748-16.524c2.448-9.792,4.896-20.808,6.12-33.66C397.8,386.208,402.084,403.344,403.92,424.152z
	 M208.08,424.152c1.836-20.809,6.732-37.333,11.628-50.185c1.836,12.852,3.672,24.48,6.12,33.66
	C218.484,412.524,212.976,418.032,208.08,424.152z M264.384,436.392c-4.896-5.508-23.868-31.212-23.868-114.443
	c0-79.56,46.512-141.372,66.096-163.404c18.972,22.032,66.096,83.232,66.096,163.404c0,83.844-19.584,109.548-23.868,113.832
	c-2.448,0.611-6.731,1.224-12.24,1.836c2.448-34.884-0.611-67.32-1.224-73.44c0-3.06-1.836-5.508-3.672-7.344
	c-1.224-0.612-10.404-8.568-24.48-8.568l0,0c-14.076,0-23.256,7.956-24.479,8.568c-2.448,1.836-3.672,4.896-3.672,7.344
	c-0.612,6.12-3.672,39.168-1.224,73.44C271.116,437.616,266.832,437.004,264.384,436.392z M306,479.232
	c-9.18-31.824-7.344-81.396-5.508-106.488c1.224-0.612,3.06-1.224,5.508-1.224l0,0c2.448,0,4.284,0.612,5.508,1.224
	C313.344,398.448,314.568,447.408,306,479.232z M281.52,517.788c4.896,4.896,4.896,12.24,0,16.523
	c-4.896,4.284-12.24,4.896-16.524,0c-5.508-5.508-12.852-8.567-20.196-8.567c-15.912,0-28.764,12.852-28.764,28.764
	c0,9.792,4.896,18.972,13.464,24.48l0,0c0.612,0,0.612,0.611,1.224,0.611l0.612,0.612c0,0,0.612,0.612,0.612,1.224l0.612,0.612
	c0,0.612,0.612,0.612,0.612,1.224l0.612,0.612c0,0.612,0,0.612,0.612,1.224c0,0.612,0,0.612,0.612,1.225c0,0.611,0,0.611,0,1.224
	s0,0.612,0,1.225l0,0v0.611c0,0.612,0,0.612,0,1.225c0,0.611,0,0.611,0,1.224s0,0.612-0.612,1.224c0,0.612-0.612,0.612-0.612,1.225
	c0,0,0,0.611-0.612,0.611l0,0c-0.612,0.612-1.224,1.225-1.836,1.836l-0.612,0.612c-0.612,0.612-1.224,0.612-1.836,1.224
	c0,0-0.612,0-0.612,0.612c-0.612,0-1.224,0.612-1.836,0.612h-0.612c-0.612,0-1.836,0.611-2.448,0.611
	c-26.928,0-49.572,22.032-49.572,49.572c0,6.732-5.508,11.628-11.628,11.628c-6.12,0-11.628-5.508-11.628-11.628
	c0-31.824,20.808-58.752,49.572-68.544c-4.896-7.956-7.344-17.136-7.344-26.315c0-25.093,17.748-45.9,41.004-50.797
	c1.836-11.628,7.344-23.256,15.3-32.436c4.284-4.896,11.628-4.896,16.524-0.612s4.896,11.628,0.612,16.524
	c-4.284,4.896-7.344,11.016-9.18,17.136C266.832,506.771,274.788,511.056,281.52,517.788z M461.448,649.98
	c0,6.731-5.508,11.628-11.628,11.628c-6.732,0-11.628-5.509-11.628-11.628c0-26.929-22.032-49.572-49.572-49.572c0,0,0,0-0.612,0
	c-6.731,3.06-13.464,4.896-21.42,4.896c-6.731,0-11.628-5.508-11.628-11.628c0-6.731,5.508-11.628,11.628-11.628
	c15.3,0,27.54-12.24,27.54-27.54s-12.24-27.54-27.54-27.54c-3.672,0-7.956,0.612-11.628,2.448c-6.12,2.448-12.852,0-15.3-6.12
	s0-12.852,6.12-15.3c2.447-1.224,5.508-1.836,7.956-3.061c-1.836-6.119-4.284-12.239-9.181-17.136
	c-4.284-4.896-4.284-12.24,0.612-16.523c4.896-4.284,12.24-4.284,16.524,0.611c7.956,9.181,13.464,20.196,15.3,32.437
	c22.644,4.896,40.392,25.704,40.392,50.184c0,9.792-3.06,18.972-7.344,26.928C440.028,590.004,461.448,617.544,461.448,649.98z"/>
</svg>
